SplineFontDB: 3.2
FontName: os-logos
FullName: os-logos
FamilyName: os-logos
Weight: Regular
Copyright: copyright missing
Version: 000.000
ItalicAngle: 0
UnderlinePosition: -150
UnderlineWidth: 50
Ascent: 800
Descent: 200
InvalidEm: 0
sfntRevision: 0x00000000
LayerCount: 2
Layer: 0 0 "Back" 1
Layer: 1 0 "Fore" 0
XUID: [1021 382 560324961 4891041]
StyleMap: 0x0040
FSType: 8
OS2Version: 3
OS2_WeightWidthSlopeOnly: 0
OS2_UseTypoMetrics: 0
CreationTime: 1522789984
ModificationTime: 1625411717
PfmFamily: 81
TTFWeight: 400
TTFWidth: 5
LineGap: 0
VLineGap: 0
Panose: 0 0 0 0 0 0 0 0 0 0
OS2TypoAscent: 960
OS2TypoAOffset: 0
OS2TypoDescent: -64
OS2TypoDOffset: 0
OS2TypoLinegap: 64
OS2WinAscent: 960
OS2WinAOffset: 0
OS2WinDescent: 64
OS2WinDOffset: 0
HheadAscent: 960
HheadAOffset: 0
HheadDescent: -64
HheadDOffset: 0
OS2SubXSize: 650
OS2SubYSize: 600
OS2SubXOff: 0
OS2SubYOff: 75
OS2SupXSize: 650
OS2SupYSize: 600
OS2SupXOff: 0
OS2SupYOff: 350
OS2StrikeYSize: 50
OS2StrikeYPos: 220
OS2Vendor: '    '
OS2CodePages: 00000001.00000000
OS2UnicodeRanges: 00000001.10000000.00000000.00000000
MarkAttachClasses: 1
DEI: 91125
LangName: 1033 "" "" "" "" "" "Version 0.000;PS 000.000;hotconv 1.0.88;makeotf.lib2.5.64775"
Encoding: UnicodeBmp
UnicodeInterp: none
NameList: AGL For New Fonts
DisplaySize: -48
AntiAlias: 1
FitToEm: 0
WinInfo: 60268 38 14
BeginPrivate: 7
BlueScale 5 0.037
BlueShift 2 20
BlueFuzz 1 0
StdHW 5 [182]
StdVW 4 [49]
StemSnapH 11 [48 62 182]
StemSnapV 4 [49]
EndPrivate
BeginChars: 65538 27

StartChar: glyph1
Encoding: 65537 -1 4
Width: 0
Flags: W
LayerCount: 2
Fore
SplineSet
0 0 m 1024
EndSplineSet
Validated: 1
EndChar

StartChar: uniEC20
Encoding: 60448 60448 5
Width: 1396
VWidth: 512
Flags: W
HStem: -1 22<386.159 520.822> 188 26<431.165 460.67> 425 94<220.43 228.43 237.43 243.43 251.43 262.43 270.43 279.43 285.43 296.43 303.43 311.43 347.43 353.43 362.43 372.43 379.43 387.43 395.43 405.43 414.43 421.43 431.43 438.43 473.43 482.43 488.43 498.43 506.43 516.43 523.43 530.43 540.43 548.43 555.43 565.43 598.43 608.43 617.43 626.43 634.43 640.43 650.43 657.43 665.43 676.43 681.43 691.43 725.43 736.43 743.43 751.43 759.43 767.43 775.43 785.43 792.43 801.43 808.43 816.43> 526 23<210.43 316.43 338.43 446.43 465.43 575.43 590.43 699.43 721.43 826.43> 554 90<347.43 353.43 362.43 372.43 379.43 387.43 395.43 405.43 414.43 421.43 431.43 438.43 473.43 482.43 488.43 498.43 506.43 516.43 523.43 530.43 540.43 548.43 555.43 565.43 598.43 608.43 617.43 626.43 634.43 640.43 650.43 657.43 665.43 676.43 681.43 691.43> 655 21<338.43 446.43 465.43 571.43 590.43 699.43> 680 91<598.43 608.43 617.43 626.43 634.43 640.43 650.43 657.43 665.43 676.43 681.43 691.43> 781 20<590.43 699.43>
VStem: 187.43 23<419 526> 220.43 8<425 519> 237.43 6<425 519> 251.43 11<425 519> 270.43 9<425 519> 285.43 11<425 519> 303.43 8<425 519> 320.43 18<416 526 549 655> 347.43 6<425 519 554 644> 362.43 10<425 519 554 644> 379.43 8<425 519 554 644> 395.43 10<425 519 554 644> 414.43 7<425 519 554 644> 431.43 7<425 519 554 644> 446.43 19<416 526 545 655> 473.43 9<425 519 554 644> 488.43 10<425 519 554 644> 506.43 10<425 519 554 644> 523.43 7<425 519 554 644> 540.43 8<425 519 554 644> 555.43 10<425 519 554 644> 575.43 15<416 526 545 655 676 781> 598.43 10<425 519 554 644 680 771> 617.43 9<425 519 554 644 680 771> 634.43 6<425 519 554 644 680 771> 650.43 7<425 519 554 644 680 771> 665.43 11<425 519 554 644 680 771> 681.43 10<425 519 554 644 680 771> 699.43 22<416 526 549 655 670 781> 725.43 11<425 519> 743.43 8<425 519> 759.43 8<425 519> 775.43 10<425 519> 792.43 9<425 519> 808.43 8<425 519> 826.43 22<419 526>
LayerCount: 2
Fore
SplineSet
721.4296875 549 m 5
 848.4296875 549 l 5
 848.4296875 419 l 5
 912.4296875 419 l 6
 942.4296875 419 970.4296875 424 1000.4296875 434 c 4
 1016.4296875 438 1031.4296875 445 1044.4296875 454 c 5
 1026.4296875 474 1014.4296875 501 1011.4296875 534 c 4
 1007.4296875 586 1017.4296875 627 1044.4296875 657 c 6
 1058.4296875 673 l 5
 1072.4296875 659 l 5
 1119.4296875 622 1148.4296875 578 1154.4296875 531 c 5
 1208.4296875 547 1256.4296875 543 1301.4296875 516 c 6
 1317.4296875 508 l 5
 1307.4296875 490 l 6
 1274.4296875 426 1214.4296875 398 1125.4296875 402 c 5
 1071.4296875 268 988.4296875 168 877.4296875 100 c 4
 766.4296875 32 634.4296875 -1 486.4296875 -1 c 4
 318.4296875 -1 197.4296875 61 123.4296875 189 c 5
 120.4296875 189 l 5
 108.4296875 214 l 6
 85.4296875 270 75.4296875 334 79.4296875 400 c 6
 81.4296875 419 l 5
 187.4296875 419 l 5
 187.4296875 549 l 5
 316.4296875 549 l 5
 316.4296875 676 l 5
 571.4296875 676 l 5
 571.4296875 801 l 5
 721.4296875 801 l 5
 721.4296875 549 l 5
303.4296875 519 m 5
 311.4296875 519 l 5
 311.4296875 425 l 5
 303.4296875 425 l 5
 303.4296875 519 l 5
285.4296875 519 m 5
 296.4296875 519 l 5
 296.4296875 425 l 5
 285.4296875 425 l 5
 285.4296875 519 l 5
270.4296875 519 m 5
 279.4296875 519 l 5
 279.4296875 425 l 5
 270.4296875 425 l 5
 270.4296875 519 l 5
251.4296875 519 m 5
 262.4296875 519 l 5
 262.4296875 425 l 5
 251.4296875 425 l 5
 251.4296875 519 l 5
237.4296875 519 m 5
 243.4296875 519 l 5
 243.4296875 425 l 5
 237.4296875 425 l 5
 237.4296875 519 l 5
220.4296875 519 m 5
 228.4296875 519 l 5
 228.4296875 425 l 5
 220.4296875 425 l 5
 220.4296875 519 l 5
210.4296875 526 m 5
 210.4296875 416 l 5
 320.4296875 416 l 5
 320.4296875 526 l 5
 210.4296875 526 l 5
431.4296875 644 m 5
 438.4296875 644 l 5
 438.4296875 554 l 5
 431.4296875 554 l 5
 431.4296875 644 l 5
414.4296875 644 m 5
 421.4296875 644 l 5
 421.4296875 554 l 5
 414.4296875 554 l 5
 414.4296875 644 l 5
395.4296875 644 m 5
 405.4296875 644 l 5
 405.4296875 554 l 5
 395.4296875 554 l 5
 395.4296875 644 l 5
379.4296875 644 m 5
 387.4296875 644 l 5
 387.4296875 554 l 5
 379.4296875 554 l 5
 379.4296875 644 l 5
362.4296875 644 m 5
 372.4296875 644 l 5
 372.4296875 554 l 5
 362.4296875 554 l 5
 362.4296875 644 l 5
347.4296875 644 m 5
 353.4296875 644 l 5
 353.4296875 554 l 5
 347.4296875 554 l 5
 347.4296875 644 l 5
338.4296875 655 m 5
 338.4296875 545 l 5
 446.4296875 545 l 5
 446.4296875 655 l 5
 338.4296875 655 l 5
431.4296875 519 m 5
 438.4296875 519 l 5
 438.4296875 425 l 5
 431.4296875 425 l 5
 431.4296875 519 l 5
414.4296875 519 m 5
 421.4296875 519 l 5
 421.4296875 425 l 5
 414.4296875 425 l 5
 414.4296875 519 l 5
395.4296875 519 m 5
 405.4296875 519 l 5
 405.4296875 425 l 5
 395.4296875 425 l 5
 395.4296875 519 l 5
379.4296875 519 m 5
 387.4296875 519 l 5
 387.4296875 425 l 5
 379.4296875 425 l 5
 379.4296875 519 l 5
362.4296875 519 m 5
 372.4296875 519 l 5
 372.4296875 425 l 5
 362.4296875 425 l 5
 362.4296875 519 l 5
347.4296875 519 m 5
 353.4296875 519 l 5
 353.4296875 425 l 5
 347.4296875 425 l 5
 347.4296875 519 l 5
338.4296875 526 m 5
 338.4296875 416 l 5
 446.4296875 416 l 5
 446.4296875 526 l 5
 338.4296875 526 l 5
555.4296875 519 m 5
 565.4296875 519 l 5
 565.4296875 425 l 5
 555.4296875 425 l 5
 555.4296875 519 l 5
540.4296875 519 m 5
 548.4296875 519 l 5
 548.4296875 425 l 5
 540.4296875 425 l 5
 540.4296875 519 l 5
523.4296875 519 m 5
 530.4296875 519 l 5
 530.4296875 425 l 5
 523.4296875 425 l 5
 523.4296875 519 l 5
506.4296875 519 m 5
 516.4296875 519 l 5
 516.4296875 425 l 5
 506.4296875 425 l 5
 506.4296875 519 l 5
488.4296875 519 m 5
 498.4296875 519 l 5
 498.4296875 425 l 5
 488.4296875 425 l 5
 488.4296875 519 l 5
473.4296875 519 m 5
 482.4296875 519 l 5
 482.4296875 425 l 5
 473.4296875 425 l 5
 473.4296875 519 l 5
465.4296875 526 m 5
 465.4296875 416 l 5
 575.4296875 416 l 5
 575.4296875 526 l 5
 465.4296875 526 l 5
555.4296875 644 m 5
 565.4296875 644 l 5
 565.4296875 554 l 5
 555.4296875 554 l 5
 555.4296875 644 l 5
540.4296875 644 m 5
 548.4296875 644 l 5
 548.4296875 554 l 5
 540.4296875 554 l 5
 540.4296875 644 l 5
523.4296875 644 m 5
 530.4296875 644 l 5
 530.4296875 554 l 5
 523.4296875 554 l 5
 523.4296875 644 l 5
506.4296875 644 m 5
 516.4296875 644 l 5
 516.4296875 554 l 5
 506.4296875 554 l 5
 506.4296875 644 l 5
488.4296875 644 m 5
 498.4296875 644 l 5
 498.4296875 554 l 5
 488.4296875 554 l 5
 488.4296875 644 l 5
473.4296875 644 m 5
 482.4296875 644 l 5
 482.4296875 554 l 5
 473.4296875 554 l 5
 473.4296875 644 l 5
465.4296875 655 m 5
 465.4296875 545 l 5
 575.4296875 545 l 5
 575.4296875 655 l 5
 465.4296875 655 l 5
681.4296875 519 m 5
 691.4296875 519 l 5
 691.4296875 425 l 5
 681.4296875 425 l 5
 681.4296875 519 l 5
665.4296875 519 m 5
 676.4296875 519 l 5
 676.4296875 425 l 5
 665.4296875 425 l 5
 665.4296875 519 l 5
650.4296875 519 m 5
 657.4296875 519 l 5
 657.4296875 425 l 5
 650.4296875 425 l 5
 650.4296875 519 l 5
634.4296875 519 m 5
 640.4296875 519 l 5
 640.4296875 425 l 5
 634.4296875 425 l 5
 634.4296875 519 l 5
617.4296875 519 m 5
 626.4296875 519 l 5
 626.4296875 425 l 5
 617.4296875 425 l 5
 617.4296875 519 l 5
598.4296875 519 m 5
 608.4296875 519 l 5
 608.4296875 425 l 5
 598.4296875 425 l 5
 598.4296875 519 l 5
590.4296875 526 m 5
 590.4296875 416 l 5
 699.4296875 416 l 5
 699.4296875 526 l 5
 590.4296875 526 l 5
681.4296875 644 m 5
 691.4296875 644 l 5
 691.4296875 554 l 5
 681.4296875 554 l 5
 681.4296875 644 l 5
665.4296875 644 m 5
 676.4296875 644 l 5
 676.4296875 554 l 5
 665.4296875 554 l 5
 665.4296875 644 l 5
650.4296875 644 m 5
 657.4296875 644 l 5
 657.4296875 554 l 5
 650.4296875 554 l 5
 650.4296875 644 l 5
634.4296875 644 m 5
 640.4296875 644 l 5
 640.4296875 554 l 5
 634.4296875 554 l 5
 634.4296875 644 l 5
617.4296875 644 m 5
 626.4296875 644 l 5
 626.4296875 554 l 5
 617.4296875 554 l 5
 617.4296875 644 l 5
598.4296875 644 m 5
 608.4296875 644 l 5
 608.4296875 554 l 5
 598.4296875 554 l 5
 598.4296875 644 l 5
590.4296875 655 m 5
 590.4296875 545 l 5
 699.4296875 545 l 5
 699.4296875 655 l 5
 590.4296875 655 l 5
681.4296875 771 m 5
 691.4296875 771 l 5
 691.4296875 680 l 5
 681.4296875 680 l 5
 681.4296875 771 l 5
665.4296875 771 m 5
 676.4296875 771 l 5
 676.4296875 680 l 5
 665.4296875 680 l 5
 665.4296875 771 l 5
650.4296875 771 m 5
 657.4296875 771 l 5
 657.4296875 680 l 5
 650.4296875 680 l 5
 650.4296875 771 l 5
634.4296875 771 m 5
 640.4296875 771 l 5
 640.4296875 680 l 5
 634.4296875 680 l 5
 634.4296875 771 l 5
617.4296875 771 m 5
 626.4296875 771 l 5
 626.4296875 680 l 5
 617.4296875 680 l 5
 617.4296875 771 l 5
598.4296875 771 m 5
 608.4296875 771 l 5
 608.4296875 680 l 5
 598.4296875 680 l 5
 598.4296875 771 l 5
590.4296875 781 m 5
 590.4296875 670 l 5
 699.4296875 670 l 5
 699.4296875 781 l 5
 590.4296875 781 l 5
808.4296875 519 m 5
 816.4296875 519 l 5
 816.4296875 425 l 5
 808.4296875 425 l 5
 808.4296875 519 l 5
792.4296875 519 m 5
 801.4296875 519 l 5
 801.4296875 425 l 5
 792.4296875 425 l 5
 792.4296875 519 l 5
775.4296875 519 m 5
 785.4296875 519 l 5
 785.4296875 425 l 5
 775.4296875 425 l 5
 775.4296875 519 l 5
759.4296875 519 m 5
 767.4296875 519 l 5
 767.4296875 425 l 5
 759.4296875 425 l 5
 759.4296875 519 l 5
743.4296875 519 m 5
 751.4296875 519 l 5
 751.4296875 425 l 5
 743.4296875 425 l 5
 743.4296875 519 l 5
725.4296875 519 m 5
 736.4296875 519 l 5
 736.4296875 425 l 5
 725.4296875 425 l 5
 725.4296875 519 l 5
718.4296875 526 m 5
 718.4296875 416 l 5
 826.4296875 416 l 5
 826.4296875 526 l 5
 718.4296875 526 l 5
440.4296875 241 m 5
 431.4296875 241 425.4296875 237 419.4296875 231 c 4
 413.4296875 225 410.4296875 219 410.4296875 210 c 4
 410.4296875 201 413.4296875 195 419.4296875 189 c 4
 425.4296875 183 431.4296875 180 440.4296875 180 c 4
 449.4296875 180 455.4296875 183 461.4296875 189 c 4
 467.4296875 195 469.4296875 201 469.4296875 210 c 4
 469.4296875 216 468.4296875 220 465.4296875 224 c 4
 462.4296875 228 458.4296875 233 454.4296875 236 c 4
 450.4296875 239 444.4296875 241 440.4296875 241 c 5
440.4296875 231 m 5
 443.4296875 231 445.4296875 231 446.4296875 230 c 5
 443.4296875 229 442.4296875 224 442.4296875 221 c 4
 442.4296875 217 445.4296875 214 451.4296875 214 c 4
 454.4296875 214 459.4296875 216 460.4296875 219 c 5
 461.4296875 216 462.4296875 213 462.4296875 210 c 4
 462.4296875 196 454.4296875 188 440.4296875 188 c 4
 426.4296875 188 418.4296875 196 418.4296875 210 c 4
 418.4296875 224 426.4296875 231 440.4296875 231 c 5
521.4296875 21 m 5
 455.4296875 54 409.4296875 98 382.4296875 157 c 5
 353.4296875 148 319.4296875 144 281.4296875 143 c 4
 259.4296875 143 259.4296875 143 236.4296875 143 c 4
 209.4296875 143 208.4296875 143 176.4296875 143 c 5
 258.4296875 63 361.4296875 22 486.4296875 21 c 4
 504.4296875 21 503.4296875 21 521.4296875 21 c 5
EndSplineSet
Validated: 37
EndChar

StartChar: uniEC21
Encoding: 60449 60449 6
Width: 808
VWidth: 512
Flags: W
HStem: 0 21G<547.833 569.255> 31.623 539.633<336.953 480.779>
VStem: 67.3672 563.096<288.148 461.423>
LayerCount: 2
Fore
SplineSet
727.37109375 174.4375 m 0
 714.109375 145.874023438 700.84765625 120.37109375 684.52734375 97.9296875 c 0
 662.083984375 65.2861328125 643.72265625 44.884765625 629.44140625 31.623046875 c 0
 607 10.2001953125 581.49609375 0 557.013671875 0 c 0
 538.65234375 0 517.23046875 5.1005859375 491.728515625 15.3017578125 c 0
 466.224609375 25.5029296875 442.763671875 31.623046875 421.341796875 31.623046875 c 0
 398.8984375 31.623046875 373.396484375 25.5029296875 347.89453125 15.3017578125 c 0
 322.390625 5.1005859375 300.96875 -1.01953125 285.66796875 -2.0400390625 c 0
 261.185546875 -3.060546875 235.68359375 9.1806640625 212.220703125 31.623046875 c 0
 196.919921875 45.904296875 176.517578125 67.3271484375 154.076171875 99.970703125 c 0
 129.591796875 135.673828125 109.19140625 175.45703125 93.888671875 221.361328125 c 0
 76.546875 271.346679688 67.3671875 319.291015625 67.3671875 366.215820312 c 0
 67.3671875 419.26171875 79.607421875 465.165039062 103.0703125 503.9296875 c 0
 120.412109375 535.552734375 143.873046875 560.03515625 174.4765625 578.396484375 c 0
 205.080078125 596.7578125 236.703125 604.918945312 272.40625 604.918945312 c 0
 292.80859375 604.918945312 318.310546875 599.818359375 349.93359375 588.59765625 c 0
 381.556640625 577.376953125 400.939453125 571.255859375 410.12109375 571.255859375 c 0
 416.240234375 571.255859375 438.68359375 577.376953125 477.447265625 591.658203125 c 0
 513.150390625 604.918945312 543.751953125 608.999023438 568.236328125 606.959960938 c 0
 636.58203125 601.859375 687.587890625 576.356445312 720.23046875 528.411132812 c 1
 660.044921875 491.688476562 629.44140625 439.663085938 630.462890625 374.376953125 c 0
 630.462890625 323.372070312 647.802734375 280.52734375 684.52734375 247.883789062 c 0
 700.84765625 232.583007812 719.2109375 220.341796875 740.6328125 212.180664062 c 1
 735.53125 197.899414062 731.451171875 185.658203125 727.37109375 174.4375 c 0
573.3359375 782.416992188 m 0
 573.3359375 741.612304688 559.0546875 702.848632812 529.47265625 669.185546875 c 0
 490.708984375 625.321289062 449.904296875 605.939453125 406.0390625 608.999023438 c 1
 405.01953125 614.099609375 404 619.201171875 404 624.301757812 c 0
 404 664.084960938 419.30078125 700.80859375 450.923828125 736.51171875 c 0
 465.205078125 752.833984375 484.587890625 767.114257812 507.029296875 778.3359375 c 0
 529.47265625 789.557617188 550.89453125 796.697265625 571.296875 797.71875 c 1
 572.31640625 792.6171875 573.3359375 787.516601562 573.3359375 782.416992188 c 0
EndSplineSet
Validated: 33
EndChar

StartChar: uniEC22
Encoding: 60450 60450 7
Width: 918
Flags: W
HStem: 0 33.2109<355.397 563.441> 692.667 25.1162<403.864 515.112> 766.667 33.333<359.083 564.744>
VStem: 59 33.8662<291.263 509.016> 200.52 44.9189<313.126 514.816> 825.646 33.3535<290.72 444.724>
LayerCount: 2
Fore
SplineSet
459 800 m 4
 679.765625 800 859 620.765625 859 400 c 4
 859 179.234375 679.765625 0 459 0 c 4
 238.234375 0 59 179.234375 59 400 c 4
 59 620.765625 238.234375 800 459 800 c 4
459 766.666992188 m 6
 256.772460938 766.500976562 92.8662109375 601.876953125 92.8662109375 399.610351562 c 4
 92.8662109375 329.120117188 112.799804688 263.25 147.333007812 207.333007812 c 4
 188.056640625 212.762695312 228.276367188 222.482421875 266 235.666992188 c 5
 229.444335938 277.03515625 205.66015625 330.365234375 201 388.666992188 c 4
 200.72265625 394.176757812 200.51953125 399.508789062 200.51953125 405.086914062 c 4
 200.51953125 496.497070312 238.26171875 579.161132812 299 638.333007812 c 4
 334.182617188 675.993164062 380.573242188 703.107421875 432.666992188 714.666992188 c 4
 443.392578125 716.724609375 454.263671875 717.783203125 465.5859375 717.783203125 c 4
 481.049804688 717.783203125 496.047851562 715.7734375 510.333007812 712 c 4
 536.11328125 705.013671875 559.08203125 691.110351562 577 672.333007812 c 4
 594.814453125 653 607.536132812 628.731445312 613 602 c 4
 618.333007812 575.333007812 617.666992188 548.333007812 611.666992188 522 c 4
 597.432617188 469.4375 570.6328125 421.818359375 534.666992188 383 c 4
 481.421875 320.921875 417.83203125 269.501953125 345.333007812 230.333007812 c 5
 371.794921875 215.801757812 402.134765625 206.735351562 434 205 c 4
 475 202.333007812 516.333007812 212.333007812 554 229 c 4
 591.333007812 246 625.333007812 270 656.666992188 297 c 4
 721.477539062 353.25390625 774.130859375 421.658203125 812 499.666992188 c 4
 768.512695312 653.629882812 626.943359375 766.666992188 459.141601562 766.666992188 c 6
 459 766.666992188 l 6
461.333007812 692.666992188 m 4
 435.666992188 692.666992188 410 685 387.333007812 672.666992188 c 4
 343.387695312 645.405273438 308.440429688 605.994140625 286.666992188 558.666992188 c 4
 266 519 250.666992188 476.333007812 246.666992188 432.333007812 c 4
 245.759765625 424.219726562 245.438476562 415.971679688 245.438476562 407.6171875 c 4
 245.438476562 369.900390625 254.935546875 334.384765625 271.666992188 303.333007812 c 4
 281.666992188 284.666992188 295.666992188 268 311.666992188 254 c 4
 395.971679688 290.6484375 468.501953125 347.483398438 524 419.333007812 c 4
 553.0234375 454.458007812 573.150390625 497.692382812 580.666992188 544.666992188 c 4
 583.666992188 567.666992188 581.333007812 591.666992188 573.666992188 613.333007812 c 4
 566 635.333007812 552 655.333007812 533.666992188 669.333007812 c 4
 513 684.666992188 487 692.666992188 461.333007812 692.666992188 c 4
822.333007812 449.333007812 m 5
 822.333007812 449 l 6
 787.516601562 383.518554688 742.721679688 325.227539062 689 275 c 4
 645.234375 232.176757812 592.75 198.528320312 534.333007812 176.666992188 c 4
 505.5390625 166.015625 474.219726562 160.1875 441.7421875 160.1875 c 4
 410.635742188 160.1875 380.766601562 165.524414062 353 175.333007812 c 4
 333.333007812 183 314.333007812 193.333007812 297.333007812 206.666992188 c 4
 259.0703125 189.764648438 217.98828125 176.09375 176.333007812 166.666992188 c 5
 243.609375 85.2646484375 345.23046875 33.2109375 458.979492188 33.2109375 c 4
 661.348632812 33.2109375 825.646484375 197.508789062 825.646484375 399.877929688 c 4
 825.646484375 416.6484375 824.518554688 433.157226562 822.333007812 449.333007812 c 5
EndSplineSet
Validated: 33
EndChar

StartChar: uniEC23
Encoding: 60451 60451 8
Width: 934
Flags: W
HStem: -2 167.967<372.648 527.978> 384.2 27.6328<620.959 698.5> 630 168<372.646 527.977>
VStem: 67 74.5996<356.166 439.834> 248.366 21.6006<366.023 429.698> 698.5 168.5<307.711 383.1 412.967 488.289>
LayerCount: 2
Fore
SplineSet
467 798 m 4
 687.766601562 798 867 618.766601562 867 398 c 4
 867 177.233398438 687.766601562 -2 467 -2 c 4
 246.233398438 -2 67 177.233398438 67 398 c 4
 67 618.766601562 246.233398438 798 467 798 c 4
576.299804688 208.666992188 m 4
 550.766601562 193.966796875 542 161.266601562 556.766601562 135.700195312 c 4
 571.466796875 110.200195312 604.166992188 101.43359375 629.700195312 116.233398438 c 4
 655.233398438 130.93359375 664 163.633789062 649.200195312 189.200195312 c 4
 634.5 214.700195312 601.833007812 223.466796875 576.299804688 208.666992188 c 4
467 242 m 4
 443.5 242 421.233398438 247.233398438 401.299804688 256.5 c 6
 364.200195312 190 l 5
 395.200195312 174.700195312 430.133789062 165.966796875 467 165.966796875 c 4
 488.533203125 165.966796875 509.266601562 169 529 174.5 c 4
 532.466796875 195.93359375 545.166992188 215.633789062 565.5 227.400390625 c 4
 585.799804688 239.099609375 609.266601562 240.266601562 629.5 232.599609375 c 4
 669.033203125 271.366210938 694.733398438 324.233398438 698.5 383.099609375 c 5
 622.333007812 384.200195312 l 6
 615.333007812 304.5 548.5 242 467 242 c 4
311 398 m 4
 311 450.766601562 337.233398438 497.366210938 377.333007812 525.666992188 c 6
 338.333007812 591.033203125 l 5
 291.533203125 560.033203125 256.833007812 512.06640625 242.299804688 456.533203125 c 4
 259.166992188 443.06640625 269.966796875 422.06640625 269.966796875 398.533203125 c 4
 269.966796875 375.06640625 259.166992188 354.56640625 242.299804688 340.56640625 c 4
 256.833007812 285.06640625 291.533203125 237.099609375 338.333007812 206.099609375 c 5
 377.333007812 271.599609375 l 6
 337.233398438 299 311 345.533203125 311 398 c 4
195 451.400390625 m 4
 165.5 451.400390625 141.599609375 427.5 141.599609375 398 c 4
 141.599609375 368.5 165.5 344.599609375 195 344.599609375 c 4
 224.5 344.599609375 248.366210938 368.5 248.366210938 398 c 4
 248.366210938 427.5 224.5 451.400390625 195 451.400390625 c 4
467 554 m 4
 548.5 554 615.333007812 491.5 622.333007812 411.833007812 c 6
 698.5 412.966796875 l 5
 694.733398438 471.799804688 669 524.633789062 629.5 563.5 c 4
 609.200195312 555.766601562 585.733398438 557.033203125 565.5 568.633789062 c 4
 545.200195312 580.366210938 532.5 600.133789062 529 621.666992188 c 4
 509.200195312 627 488.533203125 630 467 630 c 4
 430 630 395.166992188 621.333007812 364.200195312 606 c 5
 401.299804688 539.5 l 6
 421.299804688 548.799804688 443.56640625 554 467 554 c 4
576.299804688 587.366210938 m 4
 601.799804688 572.633789062 634.5 581.333007812 649.266601562 606.866210938 c 4
 663.966796875 632.366210938 655.299804688 665.06640625 629.666992188 679.866210938 c 4
 604.166992188 694.533203125 571.466796875 685.833007812 556.700195312 660.233398438 c 4
 542 634.766601562 550.700195312 602.099609375 576.299804688 587.366210938 c 4
EndSplineSet
Validated: 33
EndChar

StartChar: uniEC24
Encoding: 60452 60452 9
Width: 962
Flags: W
HStem: 667.6 132.4<505.626 561.428>
LayerCount: 2
Fore
SplineSet
480.798828125 800 m 0
 701.765625 800 880.798828125 620.866210938 880.798828125 399.966796875 c 0
 880.798828125 399.880859375 881.16796875 400.013671875 881.16796875 399.927734375 c 0
 881.16796875 265.883789062 814.98046875 147.176757812 713.532226562 74.7333984375 c 1
 690.798828125 236.866210938 637.33203125 504.5 525.999023438 578.93359375 c 1
 537.932617188 586.866210938 538.932617188 627.666992188 538.932617188 627.666992188 c 1
 570.83203125 667.599609375 l 1
 559.69921875 667.966796875 498.598632812 649.966796875 480.69921875 627.299804688 c 0
 426.732421875 623.400390625 208.866210938 474.799804688 81.1328125 384.6328125 c 1
 80.9326171875 389.733398438 80.83203125 394.833007812 80.83203125 399.966796875 c 0
 80.83203125 620.866210938 259.899414062 800 480.798828125 800 c 0
461.032226562 438.599609375 m 0
 461.171875 438.604492188 461.293945312 438.606445312 461.434570312 438.606445312 c 0
 462.229492188 438.606445312 463.008789062 438.536132812 463.765625 438.400390625 c 0
 556.065429688 437.866210938 646.232421875 206.233398438 693.666015625 61.2333984375 c 0
 632.032226562 22.400390625 559.032226562 0 480.798828125 0 c 0
 480.612304688 0 480.36328125 -0.0390625 480.17578125 -0.0390625 c 0
 371.30859375 -0.0390625 272.575195312 43.693359375 200.598632812 114.533203125 c 0
 232.366210938 158.233398438 266.83203125 206.266601562 300.19921875 252.333007812 c 0
 369.598632812 348.200195312 431.065429688 437.700195312 461.032226562 438.599609375 c 0
236.765625 402 m 0
 242.166015625 402 245.999023438 401.06640625 247.866210938 399 c 0
 258.399414062 386.599609375 213.6328125 326.599609375 167.432617188 258.666992188 c 0
 155.298828125 240.900390625 143.098632812 222.666992188 131.432617188 205 c 1
 105.899414062 250.6328125 89.1328125 301.766601562 83.19921875 356.166992188 c 0
 141.432617188 378.6328125 209.33203125 402.233398438 236.765625 402 c 0
308.932617188 367.833007812 m 0
 309.2421875 367.889648438 309.561523438 367.916015625 309.887695312 367.916015625 c 0
 310.650390625 367.916015625 311.375976562 367.755859375 312.032226562 367.466796875 c 0
 315.965820312 362.666992188 242.866210938 246.099609375 177.532226562 139.099609375 c 1
 165.032226562 153.6328125 153.598632812 169 143.265625 185.233398438 c 0
 206.798828125 264.833007812 286.798828125 364.5 308.932617188 367.833007812 c 0
EndSplineSet
Validated: 33
EndChar

StartChar: uniEC25
Encoding: 60453 60453 10
Width: 950
Flags: W
HStem: 705.133 94.7334<504.975 604.756>
VStem: 75.3701 42.9629<210.86 262.755> 273.894 8.67188<357.568 391.216> 493.471 198.003<481.066 564.854> 616.471 8.68359<355.661 390.393>
LayerCount: 2
Fore
SplineSet
475.170898438 799.866210938 m 0xe0
 475.2890625 799.866210938 475.557617188 799.825195312 475.676757812 799.825195312 c 0
 578.91015625 799.825195312 673.037109375 760.532226562 743.904296875 696.099609375 c 0
 857.904296875 595.099609375 903.5703125 426.166015625 856.904296875 281.333007812 c 0
 811.170898438 128.19921875 665.670898438 11.7666015625 506.00390625 1.666015625 c 0
 397.470703125 -0.93359375 288.904296875 1.19921875 180.336914062 0.533203125 c 0
 131.00390625 -5.2666015625 79.63671875 30.466796875 75.8701171875 81.8662109375 c 0
 74.7041015625 170.666015625 75.7041015625 259.6328125 75.3701171875 348.5 c 0
 73.5703125 418.799804688 77.404296875 490.899414062 106.904296875 556 c 0
 166.470703125 701.166015625 318.00390625 802.033203125 475.170898438 799.866210938 c 0xe0
592.50390625 705.1328125 m 2
 592.470703125 705.1328125 l 2
 510.370117188 706.266601562 433.5703125 648.1328125 411.970703125 568.932617188 c 0
 399.5703125 519.69921875 406.870117188 468.399414062 404.870117188 418.166015625 c 2
 327.670898438 418.166015625 l 2
 327.044921875 417.833007812 326.327148438 417.638671875 325.5703125 417.6328125 c 0
 301.704101562 417.466796875 282.5703125 398.466796875 282.5703125 374.466796875 c 0
 282.5703125 374.409179688 282.565429688 374.35546875 282.565429688 374.298828125 c 0
 282.565429688 350.56640625 301.833007812 331.298828125 325.565429688 331.298828125 c 0
 325.65625 331.298828125 325.74609375 331.298828125 325.836914062 331.299804688 c 0
 325.877929688 331.30078125 325.920898438 331.298828125 325.9609375 331.298828125 c 0
 326.708007812 331.298828125 327.4140625 331.118164062 328.037109375 330.799804688 c 2
 354.704101562 330.799804688 l 2
 370.970703125 328.266601562 392.670898438 337.466796875 403.770507812 322.266601562 c 0
 406.303710938 299.533203125 404.204101562 276.299804688 404.870117188 253.399414062 c 0
 408.404296875 212.866210938 395.904296875 168.466796875 358.336914062 146.966796875 c 0
 337.336914062 132.799804688 311.970703125 129.266601562 288.103515625 133.932617188 c 0
 286.270507812 134.19921875 285.00390625 134.399414062 282.50390625 134.599609375 c 0
 253.303710938 136.866210938 233.50390625 119.799804688 231.4375 93.2666015625 c 0
 230.037109375 75.1328125 242.470703125 58.2666015625 260.370117188 48.7998046875 c 0
 350.870117188 24.8994140625 454.370117188 79.2666015625 483.204101562 169.466796875 c 0
 500.103515625 221.599609375 491.336914062 276.932617188 493.537109375 330.799804688 c 0
 519.4375 330.866210938 545.303710938 330.766601562 571.204101562 330.866210938 c 0
 571.799804688 331.142578125 572.467773438 331.299804688 573.166992188 331.299804688 c 0
 573.1796875 331.299804688 573.19140625 331.299804688 573.204101562 331.299804688 c 0
 573.294921875 331.298828125 573.379882812 331.295898438 573.470703125 331.295898438 c 0
 597.203125 331.295898438 616.470703125 350.563476562 616.470703125 374.295898438 c 0
 616.470703125 374.352539062 616.470703125 374.409179688 616.470703125 374.466796875 c 0
 616.470703125 374.522460938 616.470703125 374.576171875 616.470703125 374.6328125 c 0xe8
 616.470703125 398.365234375 597.203125 417.6328125 573.470703125 417.6328125 c 0
 572.981445312 417.646484375 572.5078125 417.740234375 572.0703125 417.899414062 c 0
 562.470703125 417.932617188 552.9375 418.166015625 543.737304688 418.166015625 c 0
 527.470703125 420.69921875 505.670898438 411.466796875 494.5703125 426.69921875 c 0
 492.00390625 453.06640625 494.270507812 479.899414062 493.470703125 506.432617188 c 0xf0
 486.904296875 562.932617188 534.970703125 618.366210938 592.470703125 616.599609375 c 0
 600.762695312 616.590820312 608.77734375 615.544921875 616.470703125 613.599609375 c 0xe8
 642.904296875 613.56640625 660.537109375 630.1328125 662.470703125 655.1328125 c 0
 663.904296875 673.69921875 650.970703125 691.69921875 632.404296875 701.233398438 c 0
 619.404296875 704.06640625 606.037109375 705.466796875 592.50390625 705.1328125 c 2
616.00390625 703.399414062 m 1
 620.336914062 702.599609375 l 1
 616.00390625 703.399414062 l 1
656.803710938 694.06640625 m 1
 656.836914062 694.033203125 l 2
 661.677734375 688.948242188 665.588867188 683.024414062 668.370117188 676.466796875 c 0
 700.143554688 646.697265625 731.95703125 618.291992188 765.13671875 590.06640625 c 1
 744.670898438 637.19921875 704.9375 675.966796875 656.803710938 694.06640625 c 1
671.803710938 662.899414062 m 2
 671.770507812 662.899414062 l 1
 671.836914062 662.266601562 671.904296875 661.6328125 671.904296875 661 c 0
 671.981445312 659.901367188 672.021484375 658.875976562 672.021484375 657.7578125 c 0
 672.021484375 656.639648438 671.981445312 655.53125 671.904296875 654.432617188 c 0
 671.336914062 647.099609375 669.50390625 640.299804688 666.5703125 634.233398438 c 2
 666.0703125 633.1328125 l 2
 703.009765625 598.771484375 740.176757812 566.153320312 779.0703125 533.966796875 c 1
 777.870117188 550.099609375 774.5703125 565.766601562 769.037109375 580.69921875 c 1
 769.5703125 579.266601562 770.204101562 577.833007812 770.670898438 576.366210938 c 1
 736.826171875 604.66015625 704.313476562 633.118164062 671.803710938 662.899414062 c 2
672.470703125 656.366210938 m 1
 670.537109375 639.166015625 670.537109375 639.166015625 672.470703125 656.366210938 c 1
662.00390625 626.56640625 m 1
 662.037109375 626.56640625 l 1
 656.900390625 619.416992188 650.068359375 613.697265625 642.037109375 609.899414062 c 1
 686.283203125 568.254882812 731.045898438 528.951171875 778.103515625 490.432617188 c 1
 779.427734375 498.8359375 780.110351562 507.26171875 780.110351562 516.03515625 c 0
 780.110351562 516.545898438 780.108398438 517.056640625 780.103515625 517.56640625 c 0
 780.170898438 519.899414062 779.670898438 522.19921875 779.670898438 524.56640625 c 0
 739.240234375 557.719726562 700.532226562 591.275390625 662.00390625 626.56640625 c 1
679.537109375 565.56640625 m 1
 679.5703125 565.533203125 l 2
 687.155273438 551.07421875 691.473632812 534.469726562 691.473632812 517.0234375 c 0xf0
 691.473632812 504.189453125 689.150390625 491.893554688 684.904296875 480.533203125 c 0
 707.575195312 460.522460938 730.166992188 441.307617188 753.5703125 422.1328125 c 1
 758.4375 430.1328125 762.603515625 438.533203125 766.237304688 447.19921875 c 0
 739.5703125 468.799804688 715.00390625 489.6328125 691.5703125 510.033203125 c 0
 691.770507812 512.5 691.904296875 515.033203125 691.904296875 517.56640625 c 2
 691.836914062 519.399414062 l 1
 717.1796875 496.926757812 742.481445312 475.397460938 768.737304688 453.966796875 c 1
 772.18359375 463.139648438 774.939453125 472.900390625 776.803710938 482.733398438 c 0
 741.404296875 511.466796875 709.470703125 538.899414062 679.537109375 565.56640625 c 1
681.803710938 473.6328125 m 1
 677.970703125 465.599609375 673.0703125 458.099609375 666.904296875 451.432617188 c 1
 688.818359375 431.9765625 710.638671875 413.280273438 733.237304688 394.599609375 c 0
 739.3125 401.45703125 744.828125 408.635742188 749.904296875 416.299804688 c 0
 725.803710938 435.932617188 703.270507812 454.966796875 681.803710938 473.6328125 c 1
661.704101562 446.432617188 m 1
 661.704101562 446.399414062 l 2
 660.836914062 445.6328125 660.170898438 444.799804688 659.270507812 444.06640625 c 0
 653.404296875 438.1328125 646.970703125 433.5 640.204101562 429.899414062 c 1
 662.697265625 409.69921875 685.09375 390.294921875 708.303710938 370.899414062 c 0
 715.470703125 376.599609375 722.204101562 382.766601562 728.537109375 389.432617188 c 1
 705.802734375 408.204101562 683.81640625 426.955078125 661.704101562 446.432617188 c 1
633.037109375 426.6328125 m 0
 622.599609375 422.586914062 611.271484375 419.94921875 599.63671875 419.06640625 c 1
 600.50390625 418.56640625 l 2
 601.303710938 418.6328125 602.170898438 418.599609375 602.970703125 418.666015625 c 0
 627.776367188 395.7578125 652.498046875 373.787109375 678.170898438 351.833007812 c 0
 686.63671875 356.266601562 694.970703125 360.966796875 702.63671875 366.6328125 c 1
 678.94921875 386.388671875 656.057617188 406.123046875 633.037109375 426.6328125 c 0
298.170898438 418.366210938 m 1
 298.204101562 418.333007812 l 1
 286.91015625 417.796875 275.858398438 416.201171875 265.204101562 413.666015625 c 1
 280.204101562 399.432617188 l 1
 284.33203125 406.866210938 290.127929688 413.106445312 297.204101562 417.766601562 c 1
 297.0703125 417.899414062 l 1
 297.50390625 417.899414062 l 1
 298.170898438 418.366210938 l 1
265.037109375 413.69921875 m 1
 260.803710938 412.6328125 l 1
 265.037109375 413.6328125 l 1
 265.037109375 413.69921875 l 1
256.037109375 411.19921875 m 1
 256.0703125 411.19921875 l 1
 246.9375 408.56640625 237.970703125 405.5 229.303710938 401.56640625 c 1
 245.704101562 386.399414062 261.4375 371.432617188 277.037109375 356.6328125 c 1
 275.004882812 362.174804688 273.893554688 368.194335938 273.893554688 374.436523438 c 0
 273.893554688 380.40234375 274.907226562 386.1328125 276.770507812 391.466796875 c 2
 256.037109375 411.19921875 l 1
221.704101562 397.866210938 m 1
 221.704101562 397.833007812 l 2
 213.716796875 393.827148438 206.034179688 389.302734375 198.704101562 384.299804688 c 1
 221.970703125 363.1328125 243.970703125 342.466796875 265.303710938 322.1328125 c 0
 273.7734375 326.185546875 283.15234375 328.995117188 292.836914062 330.19921875 c 1
 269.204101562 352.966796875 245.704101562 375.399414062 221.704101562 397.866210938 c 1
622.4375 391.06640625 m 2
 622.404296875 391.099609375 l 1
 624.193359375 385.861328125 625.154296875 380.193359375 625.154296875 374.3515625 c 0xe8
 625.154296875 366.908203125 623.576171875 359.829101562 620.737304688 353.432617188 c 2
 641.303710938 336.833007812 l 2
 651.734375 339.716796875 661.995117188 343.599609375 671.5703125 348.233398438 c 1
 654.370117188 362.866210938 638.204101562 377.06640625 622.4375 391.06640625 c 2
192.404296875 379.56640625 m 2
 192.336914062 379.533203125 l 2
 185.3359375 374.287109375 178.828125 368.690429688 172.603515625 362.56640625 c 1
 194.5859375 342.82421875 215.83203125 323.221679688 237.270507812 302.899414062 c 1
 235.336914062 301.033203125 233.470703125 298.966796875 231.670898438 296.966796875 c 1
 210.370117188 317.391601562 189.291992188 337.122070312 167.50390625 357.033203125 c 0
 161.50390625 350.599609375 156.170898438 343.733398438 151.170898438 336.599609375 c 0
 173.672851562 316.54296875 195.423828125 296.62109375 217.370117188 275.966796875 c 0
 216.08203125 273.4609375 214.879882812 270.856445312 213.803710938 268.233398438 c 1
 192.0703125 288.866210938 170.0703125 309.533203125 147.0703125 330.233398438 c 1
 137.603515625 315.5 129.970703125 299.5 125.404296875 282.233398438 c 0
 124.270507812 278.69921875 123.836914062 275.06640625 122.9375 271.466796875 c 0
 155.48046875 242.555664062 186.8046875 213.696289062 218.270507812 183.6328125 c 1
 215.270507812 189.19921875 212.704101562 195.06640625 210.9375 201.399414062 c 0
 207.670898438 210.666015625 206.336914062 220.19921875 206.270507812 229.666015625 c 0
 181.9375 252.866210938 157.103515625 275.966796875 131.204101562 299.233398438 c 0
 132.158203125 301.6875 133.182617188 304.163085938 134.237304688 306.56640625 c 1
 158.922851562 284.705078125 182.756835938 262.952148438 206.770507812 240.366210938 c 1
 210.850585938 273.459960938 230.206054688 301.861328125 257.670898438 318.099609375 c 1
 235.955078125 338.948242188 214.517578125 359.13671875 192.404296875 379.56640625 c 2
616.370117188 374.466796875 m 1
 615.470703125 365.6328125 l 1
 616.370117188 374.466796875 l 1
674.13671875 349.333007812 m 1
 672.470703125 348.56640625 l 1
 674.13671875 349.333007812 l 1
616.803710938 346.299804688 m 1
 616.836914062 346.299804688 l 1
 612.860351562 340.185546875 607.717773438 335.043945312 601.603515625 331.06640625 c 1
 602.13671875 331.06640625 l 2
 612.0703125 331.299804688 621.904296875 332.5 631.470703125 334.5 c 1
 616.803710938 346.299804688 l 1
121.204101562 263.19921875 m 2
 121.204101562 263.233398438 l 1
 119.317382812 253.021484375 118.333007812 242.666992188 118.333007812 231.913085938 c 0
 118.333007812 231.5078125 118.333984375 231.103515625 118.336914062 230.69921875 c 0
 157.590820312 195.438476562 195.33984375 160.229492188 233.237304688 123.533203125 c 1
 238.370117188 130.166015625 245.13671875 135.466796875 253.037109375 139.033203125 c 1
 247.204101562 144.56640625 l 2
 205.603515625 184.6328125 165.204101562 223.56640625 121.204101562 263.19921875 c 2
118.870117188 220.19921875 m 2
 118.836914062 220.233398438 l 1
 119.684570312 205.981445312 122.155273438 192.02734375 126.00390625 178.799804688 c 0
 160.13671875 147.799804688 191.336914062 117.932617188 222.00390625 88.466796875 c 1
 221.94921875 89.39453125 221.920898438 90.25390625 221.920898438 91.1953125 c 0
 221.920898438 92.13671875 221.94921875 93.072265625 222.00390625 94 c 0
 222.670898438 102.299804688 225.00390625 109.899414062 228.670898438 116.56640625 c 0
 192.317382812 151.901367188 156.250976562 185.942382812 118.870117188 220.19921875 c 2
131.470703125 163.06640625 m 1
 150.237304688 115.56640625 187.470703125 75.3330078125 235.63671875 56.666015625 c 1
 230.9375 62 227.0703125 67.8994140625 224.737304688 74.3994140625 c 2
 224.0703125 75.06640625 l 2
 193.204101562 104.799804688 162.904296875 133.866210938 131.470703125 163.06640625 c 1
243.204101562 154.266601562 m 1
 248.727539062 149.787109375 254.704101562 145.90625 261.103515625 142.666015625 c 2
 261.704101562 142.166015625 l 1
 262.537109375 142.333007812 l 1
 255.670898438 145.599609375 249.170898438 149.599609375 243.204101562 154.266601562 c 1
278.103515625 45.8662109375 m 1
 283.103515625 45.033203125 l 1
 278.103515625 45.8662109375 l 1
285.704101562 44.533203125 m 1
 285.704101562 44.533203125 288.704101562 44.2998046875 294.836914062 43.69921875 c 1
 291.787109375 44.001953125 288.760742188 44.2890625 285.704101562 44.56640625 c 1
 285.704101562 44.533203125 l 1
EndSplineSet
Validated: 37
EndChar

StartChar: uniEC26
Encoding: 60454 60454 11
Width: 1000
Flags: W
HStem: -0.666992 769.867<386.7 606.332>
VStem: 125.229 769.9<260.817 480.47>
LayerCount: 2
Fore
SplineSet
890.829101562 773.56640625 m 5
 933.26171875 731.166992188 815.6953125 544.833007812 795.829101562 524.966796875 c 4
 775.928710938 505.100585938 725.461914062 523.3671875 683.0625 565.766601562 c 4
 640.662109375 608.166992188 622.395507812 658.666992188 642.26171875 678.533203125 c 4
 662.12890625 698.400390625 848.461914062 815.966796875 890.829101562 773.533203125 c 5
 890.829101562 773.56640625 l 5
296.162109375 728.700195312 m 5
 239.794921875 694.033203125 192.794921875 645.666992188 159.794921875 588.233398438 c 5
 122.662109375 653.100585938 80.3291015625 747.333007812 109.995117188 777 c 4
 139.329101562 806.299804688 231.428710938 765.43359375 296.162109375 728.700195312 c 5
826.162109375 539.56640625 m 4
 832.930664062 550.565429688 839.426757812 561.765625 845.62890625 573.133789062 c 5
 877.12890625 517.299804688 895.12890625 452.93359375 895.12890625 384.266601562 c 4
 895.12890625 171.666992188 722.76171875 -0.6669921875 510.162109375 -0.6669921875 c 4
 297.5625 -0.6669921875 125.228515625 171.700195312 125.228515625 384.266601562 c 4
 125.228515625 596.8671875 297.5625 769.200195312 510.162109375 769.200195312 c 4
 510.374023438 769.200195312 510.962890625 768.96875 511.174804688 768.96875 c 4
 574.872070312 768.96875 634.958984375 753.387695312 687.829101562 725.833007812 c 5
 674.76171875 718.56640625 662.862304688 711.43359375 652.76171875 705.06640625 c 4
 637.26171875 707.833007812 624.595703125 705.666992188 616.662109375 697.733398438 c 4
 602.095703125 683.200195312 606.895507812 652.666992188 626.162109375 618.133789062 c 4
 636.095703125 598.633789062 651.528320312 577.466796875 671.428710938 557.56640625 c 4
 675.153320312 553.844726562 678.899414062 550.306640625 682.829101562 546.799804688 c 4
 737.794921875 494.466796875 798.794921875 470.400390625 821.395507812 493 c 4
 831.0625 502.666992188 832.12890625 519.3671875 826.162109375 539.56640625 c 4
EndSplineSet
Validated: 33
EndChar

StartChar: uniEC27
Encoding: 60455 60455 12
Width: 804
Flags: W
HStem: 1.83301 22.4004<306.981 398.151> 109.066 25.0664<308.795 356.326 356.46 403.677> 759.833 14.5332<174.007 174.179 523.689 528.684>
VStem: 93.3594 30.0342<450.408 510.581> 576.427 31.7998<448.427 508.785>
LayerCount: 2
Fore
SplineSet
539.059570312 223.899414062 m 1
 510.493164062 190.932617188 494.592773438 130.899414062 515.426757812 111.533203125 c 0
 535.29296875 96.56640625 588.79296875 98.5 628.259765625 152.533203125 c 0
 656.926757812 188.533203125 647.2265625 248.966796875 630.959960938 264.932617188 c 0
 606.626953125 283.432617188 571.693359375 259.466796875 539.059570312 223.5 c 1
 539.059570312 223.899414062 l 1
270.493164062 213.899414062 m 0
 240.2265625 248.56640625 200.893554688 269.166015625 175.459960938 253.866210938 c 0
 158.459960938 241.1328125 155.29296875 197.69921875 179.559570312 154.966796875 c 0
 215.493164062 104.166015625 266.092773438 99 286.926757812 111.399414062 c 0
 308.893554688 127.666015625 296.926757812 182.6328125 270.493164062 213.899414062 c 0
407.326171875 109.06640625 m 2
 370.559570312 109.932617188 314.059570312 94.4326171875 314.79296875 74.666015625 c 0
 314.193359375 61.2333984375 359.16015625 22.2666015625 404.959960938 24.2333984375 c 0
 449.16015625 23.2333984375 494.926757812 62.19921875 494.360351562 79.19921875 c 0
 494.2265625 96.6328125 444.426757812 110.099609375 407.459960938 108.666015625 c 2
 407.326171875 109.06640625 l 2
404.826171875 573.866210938 m 2
 362.326171875 574.932617188 321.426757812 542.766601562 321.426757812 524.099609375 c 0
 321.29296875 501.432617188 355.026367188 478.233398438 405.092773438 477.6328125 c 0
 456.526367188 477.299804688 489.026367188 496.266601562 489.493164062 519.6328125 c 0
 490.026367188 546.099609375 443.026367188 574.266601562 405.559570312 573.866210938 c 2
 404.826171875 573.866210938 l 2
302.459960938 556.1328125 m 2
 231.29296875 567.6328125 172.026367188 526.1328125 174.393554688 449.733398438 c 0
 176.7265625 420.266601562 328.7265625 551.099609375 302.493164062 555.6328125 c 2
 302.459960938 556.1328125 l 2
627.426757812 447.766601562 m 0
 629.79296875 523.666015625 570.459960938 565.1328125 499.29296875 553.6328125 c 0
 473.059570312 549.1328125 625.026367188 418.266601562 627.426757812 447.766601562 c 0
639.559570312 420.299804688 m 2
 598.259765625 431.266601562 625.559570312 252 659.16015625 266.466796875 c 0
 696.126953125 295.432617188 708.026367188 381.333007812 639.559570312 419.799804688 c 2
 639.559570312 420.299804688 l 2
142.959960938 264.466796875 m 1
 176.526367188 249.466796875 203.859375 428.766601562 162.592773438 417.799804688 c 0
 94.16015625 379.366210938 105.993164062 293.466796875 142.959960938 263.966796875 c 1
 142.959960938 264.466796875 l 1
456.79296875 462.733398438 m 1
 418.592773438 437.733398438 411.66015625 381.799804688 441.426757812 337.866210938 c 0
 471.126953125 293.932617188 526.193359375 277.432617188 564.459960938 301.932617188 c 0
 602.66015625 326.366210938 609.559570312 382.333007812 579.860351562 426.799804688 c 0
 550.126953125 471.233398438 495.026367188 487.233398438 456.79296875 462.233398438 c 1
 456.79296875 462.733398438 l 1
353.592773438 458.233398438 m 2
 315.393554688 482.69921875 260.29296875 466.69921875 230.626953125 422.766601562 c 0
 200.893554688 378.299804688 207.759765625 322.366210938 245.993164062 297.399414062 c 0
 284.2265625 272.432617188 339.29296875 288.432617188 369.026367188 332.866210938 c 0
 398.526367188 376.799804688 391.526367188 432.766601562 353.526367188 457.69921875 c 2
 353.592773438 458.233398438 l 2
499.2265625 219.5 m 2
 498.926757812 265.932617188 457.493164062 303.432617188 406.526367188 302.899414062 c 0
 355.626953125 302.366210938 314.493164062 264.932617188 314.7265625 218.5 c 2
 314.7265625 217.533203125 l 2
 315.059570312 171.06640625 356.526367188 133.6328125 407.493164062 134.1328125 c 0
 458.393554688 134.1328125 499.360351562 172.06640625 498.893554688 218.033203125 c 2
 498.893554688 219 l 1
 499.2265625 219.5 l 2
606.193359375 723.932617188 m 1
 529.29296875 684.466796875 484.459960938 653 459.893554688 626 c 0
 472.459960938 576.06640625 538.026367188 574.06640625 561.993164062 575.599609375 c 1
 557.092773438 577.599609375 552.959960938 580.56640625 551.493164062 584.56640625 c 0
 557.493164062 588.56640625 578.860351562 585.099609375 593.759765625 593.06640625 c 1
 588.059570312 594.06640625 585.360351562 595.099609375 582.79296875 599.56640625 c 1
 596.759765625 604.06640625 611.959960938 607.56640625 620.826171875 615.06640625 c 1
 616.059570312 615.06640625 611.559570312 614.06640625 605.259765625 618.06640625 c 1
 617.826171875 624.533203125 631.193359375 630.033203125 641.759765625 640 c 1
 635.2265625 640 628.2265625 640 626.2265625 642.5 c 1
 637.759765625 649.5 647.393554688 657 655.459960938 665.966796875 c 1
 646.393554688 664.466796875 642.459960938 665.432617188 640.326171875 666.966796875 c 1
 649.026367188 675.466796875 660.092773438 682.932617188 665.29296875 693.966796875 c 1
 658.526367188 691.432617188 652.259765625 690.966796875 647.893554688 693.966796875 c 0
 650.926757812 700.432617188 663.559570312 704.432617188 670.893554688 719.932617188 c 1
 663.7265625 718.932617188 656.193359375 718.399414062 654.693359375 719.932617188 c 0
 657.959960938 732.899414062 663.66015625 740.366210938 669.193359375 748.399414062 c 1
 653.959960938 748.399414062 630.860351562 748.399414062 631.959960938 749.366210938 c 2
 641.393554688 758.866210938 l 1
 626.459960938 762.866210938 611.259765625 758.366210938 600.193359375 754.866210938 c 0
 595.2265625 758.366210938 600.193359375 763.366210938 606.360351562 768.366210938 c 1
 593.360351562 766.333007812 581.926757812 763.866210938 571.893554688 759.833007812 c 0
 566.426757812 764.833007812 575.393554688 769.333007812 579.893554688 774.366210938 c 1
 559.926757812 770.366210938 551.926757812 765.366210938 543.426757812 760.366210938 c 0
 537.426757812 765.866210938 542.926757812 770.833007812 546.893554688 775.333007812 c 1
 531.926757812 769.866210938 524.426757812 762.866210938 516.426757812 756.399414062 c 0
 513.426757812 759.866210938 509.459960938 762.366210938 514.426757812 771.366210938 c 1
 503.959960938 765.366210938 495.959960938 758.366210938 489.959960938 750.399414062 c 0
 483.493164062 754.866210938 485.993164062 760.366210938 485.993164062 765.366210938 c 1
 474.993164062 756.366210938 467.993164062 747.366210938 459.526367188 738.333007812 c 0
 457.493164062 739.366210938 456.026367188 743.333007812 455.026367188 749.866210938 c 1
 429.059570312 724.866210938 392.059570312 662.432617188 445.526367188 638 c 0
 490.493164062 674.466796875 544.893554688 701.432617188 604.826171875 721.432617188 c 2
 606.193359375 723.932617188 l 1
197.559570312 723.932617188 m 2
 257.493164062 703.932617188 311.526367188 677 356.79296875 640 c 0
 409.993164062 665 373.2265625 727.432617188 347.393554688 751.866210938 c 1
 346.026367188 745.399414062 344.559570312 740.899414062 342.893554688 739.899414062 c 0
 334.393554688 748.899414062 327.493164062 757.899414062 316.626953125 766.899414062 c 1
 316.626953125 761.899414062 319.193359375 755.899414062 312.7265625 751.899414062 c 0
 306.893554688 759.866210938 299.059570312 766.899414062 288.559570312 772.899414062 c 1
 293.526367188 764.366210938 289.393554688 761.899414062 286.693359375 757.932617188 c 1
 278.693359375 765.432617188 271.193359375 772.399414062 256.7265625 777.899414062 c 1
 260.7265625 772.932617188 266.7265625 767.899414062 260.7265625 762.399414062 c 0
 252.759765625 767.366210938 244.259765625 772.399414062 224.79296875 776.399414062 c 1
 229.29296875 771.432617188 238.259765625 766.399414062 232.7265625 761.399414062 c 0
 222.2265625 765.466796875 210.7265625 768.466796875 198.2265625 770 c 1
 204.259765625 765 209.626953125 760.366210938 204.626953125 756.5 c 0
 193.126953125 760.5 177.759765625 765 162.79296875 761 c 1
 172.259765625 751.533203125 l 2
 173.259765625 750.299804688 150.29296875 750.533203125 134.893554688 750.366210938 c 1
 140.393554688 742.866210938 146.126953125 735.399414062 149.393554688 721.899414062 c 0
 147.893554688 720.399414062 140.393554688 721.366210938 133.29296875 721.899414062 c 1
 140.79296875 706.932617188 153.259765625 702.899414062 156.2265625 696.399414062 c 0
 151.7265625 693.19921875 145.759765625 693.899414062 138.79296875 696.399414062 c 1
 144.259765625 685.932617188 155.259765625 678.432617188 163.7265625 669.399414062 c 1
 161.259765625 667.932617188 157.7265625 666.932617188 148.259765625 668.166015625 c 1
 156.2265625 659.5 165.7265625 651.69921875 177.2265625 644.69921875 c 1
 175.2265625 642.366210938 168.193359375 642.399414062 161.259765625 642.19921875 c 1
 171.7265625 632.06640625 185.2265625 626.733398438 197.7265625 620.099609375 c 1
 191.2265625 615.56640625 186.7265625 616.599609375 182.2265625 616.599609375 c 1
 190.7265625 609.099609375 206.2265625 605.6328125 220.193359375 601.1328125 c 1
 217.193359375 596.6328125 214.7265625 595.6328125 208.7265625 594.6328125 c 1
 223.693359375 586.166015625 244.66015625 590.1328125 250.66015625 585.6328125 c 0
 249.16015625 581.666015625 245.193359375 578.666015625 240.193359375 576.6328125 c 1
 264.16015625 575.1328125 330.092773438 577.1328125 342.592773438 627.099609375 c 0
 318.059570312 654 273.126953125 685.5 196.2265625 724.466796875 c 1
 197.559570312 723.932617188 l 2
255.359375 798.399414062 m 1
 263.2265625 798.6328125 269.893554688 793.899414062 277.092773438 791.69921875 c 0
 294.7265625 797.366210938 298.759765625 789.599609375 307.426757812 786.399414062 c 0
 326.66015625 790.399414062 332.493164062 781.69921875 341.7265625 772.432617188 c 2
 352.459960938 772.733398438 l 2
 381.426757812 755.833007812 395.959960938 721.533203125 401.026367188 703.899414062 c 1
 406.092773438 721.533203125 420.493164062 755.866210938 449.592773438 772.733398438 c 2
 460.29296875 772.5 l 2
 469.526367188 781.932617188 475.393554688 790.466796875 494.592773438 786.432617188 c 0
 503.29296875 789.932617188 507.259765625 797.432617188 524.959960938 791.966796875 c 0
 535.959960938 795.432617188 545.626953125 804.466796875 560.193359375 793.466796875 c 0
 572.459960938 798.432617188 584.393554688 799.966796875 595.026367188 790.466796875 c 0
 611.526367188 792.466796875 616.79296875 788.432617188 620.826171875 783.466796875 c 0
 624.426757812 783.466796875 647.79296875 786.932617188 658.559570312 771.466796875 c 0
 685.559570312 774.466796875 694.026367188 756 684.360351562 738.533203125 c 0
 689.860351562 730.033203125 695.592773438 722.06640625 682.693359375 706.033203125 c 0
 687.693359375 697.06640625 684.759765625 687.599609375 673.693359375 675.599609375 c 0
 676.7265625 663.1328125 671.2265625 654.599609375 661.2265625 647.6328125 c 0
 663.2265625 630.6328125 645.2265625 620.6328125 640.259765625 617.166015625 c 0
 638.2265625 607.166015625 634.2265625 597.69921875 613.759765625 592.69921875 c 0
 610.79296875 577.733398438 598.29296875 575.266601562 586.29296875 572.233398438 c 1
 625.79296875 549.733398438 659.2265625 520.299804688 659.2265625 447.866210938 c 2
 665.259765625 437.899414062 l 2
 710.2265625 410.932617188 750.66015625 324.5 687.7265625 254.099609375 c 0
 683.759765625 232.1328125 676.759765625 216.6328125 670.693359375 199.166015625 c 0
 661.7265625 128.733398438 601.29296875 95.7998046875 585.326171875 91.7998046875 c 0
 562.360351562 74.2998046875 537.393554688 57.7998046875 503.926757812 46.3662109375 c 0
 472.526367188 14.3330078125 438.059570312 1.8330078125 404.126953125 1.8330078125 c 2
 401.059570312 1.8330078125 l 2
 366.626953125 1.8330078125 332.29296875 14.3330078125 300.66015625 46.3330078125 c 0
 267.092773438 57.7998046875 242.193359375 74.2666015625 219.092773438 91.7666015625 c 0
 203.126953125 95.7666015625 142.993164062 128.666015625 133.693359375 199.1328125 c 0
 127.459960938 216.599609375 120.559570312 232.599609375 116.426757812 254.533203125 c 0
 53.29296875 324.966796875 93.7265625 411.366210938 138.626953125 438.366210938 c 2
 144.359375 448.366210938 l 2
 144.359375 520.766601562 177.859375 550.266601562 217.29296875 572.69921875 c 1
 205.326171875 575.69921875 193.29296875 578.19921875 189.859375 593.19921875 c 0
 169.359375 598.19921875 165.359375 607.666015625 163.359375 617.666015625 c 0
 158.359375 621.166015625 140.393554688 631.1328125 142.393554688 648.599609375 c 0
 132.393554688 655.6328125 126.893554688 664.099609375 129.893554688 677.06640625 c 0
 119.426757812 688.599609375 116.426757812 698.56640625 120.893554688 707.56640625 c 0
 107.893554688 723.533203125 113.926757812 732 119.393554688 740.033203125 c 0
 109.893554688 757.533203125 118.393554688 776.5 145.359375 773.5 c 0
 155.826171875 789 179.359375 785.466796875 182.79296875 785.466796875 c 0
 186.826171875 790.466796875 192.29296875 794.966796875 208.759765625 792.966796875 c 0
 219.2265625 802.466796875 231.259765625 800.966796875 243.7265625 796.366210938 c 0
 248.759765625 800.366210938 253.259765625 801.833007812 257.259765625 801.833007812 c 1
 255.359375 798.399414062 l 1
EndSplineSet
Validated: 37
EndChar

StartChar: uniEC28
Encoding: 60456 60456 13
Width: 887
Flags: W
LayerCount: 2
Fore
SplineSet
443.39453125 803.131835938 m 2
 443.4296875 803.131835938 l 2
 517.260742188 629.868164062 534.659179688 576.615234375 750 175.845703125 c 1
 722.7734375 192.182617188 687.874023438 206.78515625 639.076171875 219.48046875 c 1
 710.043945312 183.0234375 744.802734375 149.360351562 778.146484375 123.547851562 c 0
 799.328125 84.263671875 821.53515625 43.033203125 846.356445312 -2.6875 c 1
 720.404296875 70.0478515625 622.38671875 115.379882812 531.157226562 133.236328125 c 1
 534.236328125 147.467773438 536.006835938 162.116210938 536.3203125 177.189453125 c 0
 538.30078125 258.9765625 499.12109375 328.848632812 448.698242188 333.090820312 c 0
 398.275390625 337.405273438 355.736328125 274.46484375 353.685546875 192.60546875 c 2
 353.580078125 188.540039062 l 2
 353.575195312 187.912109375 353.584960938 187.451171875 353.584960938 186.822265625 c 0
 353.584960938 168.600585938 355.674804688 150.86328125 359.625976562 133.837890625 c 1
 267.372070312 116.440429688 168.364257812 71.00390625 40.6435546875 -2.72265625 c 1
 203.159179688 289.245117188 283.213867188 441.151367188 334.34375 547.797851562 c 1
 361.075195312 525.307617188 396.860351562 503.596679688 449.333984375 482.02734375 c 1
 400.538085938 516.149414062 370.481445312 546.3828125 345.9765625 572.336914062 c 0
 385.899414062 657.625 407.538085938 715.19140625 443.39453125 803.131835938 c 2
EndSplineSet
Validated: 33
EndChar

StartChar: uniEC29
Encoding: 60457 60457 14
Width: 1000
Flags: W
HStem: 576 225<325 612.5>
VStem: 100 225<1 576> 387.5 225<1 513.5> 675 225<1 801>
LayerCount: 2
Fore
SplineSet
100 801 m 5
 612.5 801 l 5
 612.5 576 l 5
 325 576 l 5
 325 1 l 5
 100 1 l 5
 100 801 l 5
387.5 513.5 m 5
 612.5 513.5 l 5
 612.5 1 l 5
 387.5 1 l 5
 387.5 513.5 l 5
675 801 m 5
 900 801 l 5
 900 1 l 5
 675 1 l 5
 675 801 l 5
EndSplineSet
Validated: 1
EndChar

StartChar: uniEC2A
Encoding: 60458 60458 15
Width: 1052
Flags: W
HStem: 0.533203 93.8994<370.134 714.457> 166.433 99.4668<388.333 462.434 549.434 623.533> 542.125 143.441<51 156.429 437.835 573.405 598.729 700.292> 602.133 85.5332<241.767 311.833>
VStem: 162.333 79.4336<163.32 540.744> 311.833 76.5<265.899 492.506> 462.434 87<265.933 463.176> 623.509 86.9355<265.933 463.208> 784.833 66.167<164.157 489.192>
LayerCount: 2
Fore
SplineSet
61 799 m 1xdf80
 524 797 l 1
 524 796 l 1
 694 796 l 2xef80
 859 796 991 676 991 528 c 2
 991 82 l 2
 991 32 945 1 894 1 c 2
 490 1 l 2
 327 1 191 121 191 269 c 2
 191 557 l 2
 191 604 184 637 134 637 c 2
 61 637 l 1
 61 799 l 1xdf80
283 699 m 1xdf80
 283 699 l 1
 283 274 l 2
 283 228 301 190 334 158 c 0
 363 130 394 116 433 112 c 2
 433 110 l 1
 741 110 l 2
 742 110 743 110 744 110 c 0
 792 110 834 128 865 160 c 2
 865 160 l 2
 894 189 911 223 915 263 c 2
 914 495 l 2
 914 496 l 0
 914 533 899 567 874 591 c 0
 847 618 815 630 778 630 c 0
 777 630 l 0
 741 630 708 615 684 592 c 0
 659 616 626 630 590 630 c 0
 590 630 l 0xef80
 553 630 518 615 494 591 c 0
 467 564 454 532 454 495 c 2
 454 308 l 1
 540 308 l 1
 540 495 l 2
 540 509 544 519 555 530 c 0
 566 541 576 545 590 545 c 0
 591 545 l 0
 605 545 617 540 626 530 c 0
 637 519 642 509 642 495 c 2
 642 309 l 1
 727 309 l 1
 727 495 l 2
 727 496 l 0
 727 510 731 521 741 530 c 0
 752 541 763 545 778 545 c 0
 779 545 l 0
 793 545 805 540 814 530 c 0
 824 521 829 510 829 496 c 0
 829 495 l 2
 829 277 l 2
 829 230 783 192 726 192 c 2
 448 193 l 2
 403 193 365 236 365 290 c 2
 365 699 l 1
 283 699 l 1xdf80
EndSplineSet
Validated: 5
EndChar

StartChar: uniEC2B
Encoding: 60459 60459 16
Width: 922
Flags: W
HStem: 2 750<357.93 528.406>
VStem: 39 750<333.668 584.106>
LayerCount: 2
Fore
SplineSet
837 268 m 5
 681 424 l 5
 581 524 l 5
 178 121 l 5
 108 192 64 291 64 400 c 4
 64 619 243 798 462 798 c 4
 681 798 858 619 858 400 c 4
 858 354 851 310 837 268 c 5
765 143 m 5
 693 57 583 2 462 2 c 4
 403 2 345 16 295 39 c 5
 581 325 l 5
 765 143 l 5
EndSplineSet
Validated: 1
EndChar

StartChar: uniEC2C
Encoding: 60460 60460 17
Width: 1000
Flags: W
LayerCount: 2
Fore
SplineSet
261.640625 683 m 5
 261.640625 683 424.634765625 771.66796875 564.0703125 664.841796875 c 5
 486.041015625 396.70703125 l 5
 486.041015625 396.70703125 398.7109375 456.85546875 333.865234375 450.375976562 c 4
 269.021484375 443.895507812 183.623046875 412.836914062 183.623046875 412.836914062 c 5
 261.640625 683 l 5
169.8671875 365.588867188 m 5
 169.8671875 365.588867188 257.34765625 406.27734375 329.984375 401.099609375 c 4
 402.611328125 395.916992188 460.603515625 356.823242188 473.111328125 347.84375 c 6
 394.271484375 76.9111328125 l 5
 394.271484375 76.9111328125 306.638671875 133.938476562 244.38671875 128.750976562 c 4
 182.1328125 123.547851562 128.1640625 114.06640625 92.2421875 95.4658203125 c 5
 169.8671875 365.588867188 l 5
513.93359375 321.615234375 m 5
 513.93359375 321.615234375 597.140625 267.509765625 651.609375 268.806640625 c 4
 705.2734375 270.088867188 742.3984375 274.317382812 815.205078125 302.856445312 c 4
 815.771484375 303.080078125 817.251953125 304.138671875 816.759765625 303.825195312 c 4
 815.205078125 302.856445312 738.74609375 35.3271484375 738.74609375 35.3271484375 c 5
 738.74609375 35.3271484375 652.91015625 -4.8349609375 575.08203125 -0.953125 c 4
 497.271484375 2.9375 450.541015625 47.4375 436.29296875 53.078125 c 6
 513.93359375 321.615234375 l 5
605.330078125 636.556640625 m 5
 627.765625 620.416015625 669.771484375 591.73828125 737.2109375 583.965820312 c 4
 804.654296875 576.184570312 907.7578125 619.21875 907.7578125 619.21875 c 5
 830.1015625 350.278320312 l 6
 818.26953125 346.297851562 769.634765625 318.091796875 680.1484375 312.909179688 c 4
 590.65625 307.715820312 527.107421875 369.966796875 527.107421875 369.966796875 c 5
 605.330078125 636.556640625 l 5
EndSplineSet
Validated: 37
EndChar

StartChar: uniEC2D
Encoding: 60461 60461 18
Width: 830
Flags: W
HStem: -0.625977 176.822<356.745 453.151>
VStem: 54.4768 157.6<268.169 500.123> 597.244 157.767<268.135 499.985>
LayerCount: 2
Fore
SplineSet
744.766601562 104.859375 m 2
 779.06640625 84.892578125 779.06640625 52.7255859375 744.833007812 32.826171875 c 2
 710.5 12.826171875 l 2
 676.200195312 -7.140625 620.966796875 -7.140625 586.633789062 12.826171875 c 2
 509.900390625 57.458984375 l 1
 449.766601562 22.6591796875 l 2
 438.03515625 15.8798828125 424.250976562 12 409.73828125 12 c 0
 395.178710938 12 381.524414062 15.9052734375 369.766601562 22.7255859375 c 2
 99.5 179.159179688 l 2
 75.556640625 193.021484375 59.5166015625 218.86328125 59.5 248.4921875 c 2
 59.5 561.326171875 l 2
 59.5009765625 590.998046875 75.55859375 616.87890625 99.533203125 630.759765625 c 2
 199.533203125 688.625976562 l 1
 369.833007812 787.192382812 l 2
 376.009765625 790.752929688 382.825195312 793.551757812 389.900390625 795.359375 c 0
 391.583984375 795.774414062 393.319335938 796.157226562 395.033203125 796.4921875 c 0
 395.533203125 796.592773438 396.033203125 796.659179688 396.5 796.79296875 c 0
 397.733398438 796.9921875 398.93359375 797.192382812 400.166992188 797.326171875 c 2
 402.299804688 797.526367188 l 1
 405.400390625 797.759765625 l 1
 407.93359375 797.826171875 l 1
 410.666992188 797.859375 l 1
 411.666992188 797.859375 l 2
 412.306640625 797.827148438 412.927734375 797.794921875 413.56640625 797.759765625 c 2
 415.666992188 797.625976562 l 1
 418.56640625 797.359375 l 1
 420.833007812 797.092773438 l 1
 423.466796875 796.659179688 l 1
 425.900390625 796.225585938 l 1
 428.299804688 795.659179688 l 1
 430.93359375 794.9921875 l 1
 433 794.359375 l 2
 433.93359375 794.059570312 434.900390625 793.79296875 435.833007812 793.458984375 c 2
 437.56640625 792.826171875 l 1
 440.666992188 791.625976562 l 1
 441.799804688 791.092773438 l 2
 444.501953125 789.922851562 447.15625 788.600585938 449.700195312 787.159179688 c 2
 590.033203125 705.958984375 l 1
 720 630.79296875 l 2
 743.453125 617.215820312 759.310546875 592.103515625 759.93359375 563.225585938 c 2
 760.033203125 561.259765625 l 1
 760.033203125 248.42578125 l 2
 760.033203125 218.793945312 743.987304688 192.9375 720.033203125 179.092773438 c 2
 668.466796875 149.259765625 l 1
 744.766601562 104.859375 l 2
387.766601562 194.692382812 m 2
 394.205078125 190.959960938 401.775390625 188.822265625 409.747070312 188.822265625 c 0
 417.71875 188.822265625 425.194335938 190.959960938 431.633789062 194.692382812 c 2
 580.299804688 280.759765625 l 2
 589.337890625 286.029296875 596.272460938 294.388671875 599.733398438 304.42578125 c 0
 601.333007812 309.026367188 602.266601562 313.859375 602.266601562 318.859375 c 2
 602.266601562 490.892578125 l 2
 602.266601562 498.592773438 600.233398438 506.225585938 596.366210938 512.92578125 c 2
 596.466796875 512.9921875 l 1
 596.400390625 513.092773438 l 2
 592.533203125 519.759765625 587 525.326171875 580.400390625 529.192382812 c 2
 431.733398438 615.192382812 l 2
 430.06640625 616.159179688 428.333007812 616.9921875 426.599609375 617.725585938 c 2
 425.099609375 618.225585938 l 2
 423.833007812 618.725585938 422.599609375 619.192382812 421.266601562 619.559570312 c 0
 420.666992188 619.725585938 420.033203125 619.826171875 419.43359375 619.958984375 c 0
 418.233398438 620.225585938 417 620.526367188 415.766601562 620.692382812 c 0
 415.099609375 620.79296875 414.5 620.79296875 413.833007812 620.859375 c 0
 412.599609375 620.958984375 411.366210938 621.092773438 410.166992188 621.092773438 c 0
 409.233398438 621.092773438 408.333007812 620.958984375 407.400390625 620.958984375 c 0
 406.366210938 620.892578125 405.333007812 620.892578125 404.299804688 620.759765625 c 0
 403.533203125 620.659179688 402.799804688 620.458984375 402.033203125 620.326171875 c 0
 400.866210938 620.092773438 399.700195312 619.92578125 398.533203125 619.592773438 c 2
 397.400390625 619.259765625 l 2
 394.06640625 618.29296875 390.833007812 616.958984375 387.766601562 615.192382812 c 2
 239.133789062 529.192382812 l 2
 232.466796875 525.29296875 226.93359375 519.692382812 223.06640625 513.026367188 c 2
 223 513.059570312 l 2
 219.200195312 506.458984375 217.099609375 498.859375 217.099609375 490.9921875 c 2
 217.099609375 318.892578125 l 2
 217.129882812 302.614257812 225.9453125 288.41796875 239.099609375 280.79296875 c 2
 387.766601562 194.692382812 l 2
EndSplineSet
Validated: 33
EndChar

StartChar: uniEC2E
Encoding: 60462 60462 19
Width: 1050
Flags: W
HStem: 18.292 49.9287<175.248 228.447> 140.875 50.959<857.508 967.232> 257.56 37.3574<910.392 945.603> 319.292 20.7422<910.286 945.918>
VStem: 127.374 47.167<64.6467 99.2622> 878.772 30.9766<295.44 318.995> 946.332 14.7734<297.35 316.256>
LayerCount: 2
Fore
SplineSet
921.249023438 340 m 6
 921.291015625 340 l 6
 943.389648438 339.1875 961.10546875 321.012695312 961.10546875 298.716796875 c 4
 961.10546875 298.25390625 961.09765625 297.79296875 961.08203125 297.333984375 c 4
 960.270507812 275.256835938 942.114257812 257.559570312 919.840820312 257.559570312 c 4
 919.364257812 257.559570312 918.888671875 257.567382812 918.416015625 257.583984375 c 4
 896.400390625 258.512695312 878.772460938 276.6796875 878.772460938 298.921875 c 4
 878.772460938 310.766601562 883.760742188 321.455078125 891.749023438 329 c 4
 899.02734375 335.840820312 908.80859375 340.034179688 919.57421875 340.034179688 c 4
 920.134765625 340.034179688 920.693359375 340.022460938 921.249023438 340 c 6
927.999023438 294.916992188 m 4
 938.124023438 294.916992188 946.33203125 300.416992188 946.33203125 307.083984375 c 4
 946.33203125 313.875 938.124023438 319.291992188 927.999023438 319.291992188 c 4
 917.916015625 319.291992188 909.749023438 313.875 909.749023438 307.083984375 c 4
 909.749023438 300.375 917.916015625 294.916992188 927.999023438 294.916992188 c 4
1024.08203125 245.75 m 5
 1024.08203125 245.791992188 l 5
 1022.41601562 244.458984375 1020.62402344 243.125 1018.83203125 241.958984375 c 4
 1005.08203125 232.708984375 973.291015625 210.458984375 932.58203125 214.125 c 4
 895.999023438 217.333984375 848.20703125 238.333984375 790.58203125 276.291992188 c 5
 796.249023438 263.041992188 801.83203125 249.75 807.416015625 236.416992188 c 4
 815.749023438 232.083984375 896.291015625 191.041992188 936.041015625 191.833984375 c 4
 968.08203125 192.5 1002.29101562 208.125 1015.99902344 216.375 c 6
 1015.99902344 216.375 1018.99902344 218.208984375 1020.33203125 217.208984375 c 4
 1021.74902344 216.083984375 1021.37402344 214.375 1020.99902344 212.625 c 4
 1020.16601562 208.708984375 1018.24902344 201.541992188 1016.95703125 198.125 c 6
 1015.83203125 195.375 l 6
 1014.29101562 191.166992188 1012.79101562 187.25 1009.87402344 184.833984375 c 4
 1001.79101562 177.5 988.916015625 171.666992188 968.70703125 162.916992188 c 4
 937.541015625 149.25 886.916015625 140.583984375 839.95703125 140.875 c 4
 823.124023438 141.25 806.874023438 143.125 792.58203125 144.791992188 c 4
 748.83203125 149.708984375 717.20703125 153.333984375 710.624023438 113.583984375 c 4
 702.291015625 63.708984375 749.166015625 3.125 749.666015625 2.5419921875 c 6
 749.666015625 2.5419921875 750.291015625 1.7919921875 749.624023438 0.958984375 c 4
 748.999023438 0.1669921875 748.08203125 0.625 748.08203125 0.625 c 5
 748.08203125 0.625 673.374023438 35 671.499023438 36.0419921875 c 4
 670.45703125 36.625 669.95703125 37.125 669.20703125 37.75 c 4
 668.499023438 38.2919921875 667.249023438 39.5419921875 667.249023438 39.5419921875 c 6
 661.58203125 45 650.33203125 57.083984375 627.291015625 83.75 c 4
 582.749023438 135.291992188 535.666015625 142.041992188 495.499023438 132.25 c 4
 485.666015625 129.916992188 473.291015625 122.75 465.166015625 114.625 c 4
 444.166015625 94 446.541015625 52.333984375 447.666015625 37.125 c 4
 449.124023438 19.958984375 449.95703125 18.708984375 450.374023438 17.333984375 c 6
 450.374023438 17.333984375 450.749023438 16.0419921875 450.08203125 15.583984375 c 4
 449.58203125 15.208984375 449.124023438 15.4169921875 447.791015625 16.0419921875 c 6
 386.541015625 45.958984375 l 5
 384.166015625 55.958984375 l 6
 382.58203125 62.625 380.791015625 69.958984375 377.249023438 79.125 c 4
 355.374023438 136.916992188 293.624023438 186.958984375 239.374023438 196.375 c 4
 202.749023438 202.708984375 135.874023438 203.416992188 100.45703125 136.583984375 c 4
 85.666015625 108.708984375 86.541015625 72.375 102.749023438 41.75 c 4
 118.370117188 11.5595703125 148.487304688 -9.8642578125 183.83203125 -13.541015625 c 4
 218.541015625 -17.291015625 244.624023438 -9.25 259.20703125 9.6669921875 c 4
 273.999023438 28.75 276.70703125 54.833984375 266.291015625 76 c 4
 255.041015625 98.75 238.041015625 110.833984375 214.499023438 112.916992188 c 4
 196.541015625 114.458984375 183.291015625 107 178.416015625 99.375 c 4
 177.041015625 97 174.541015625 92.583984375 174.541015625 86.2919921875 c 6
 174.541015625 86.083984375 l 6
 174.541015625 69 190.124023438 64.333984375 193.291015625 64.125 c 4
 194.291015625 64.1669921875 198.95703125 64.2919921875 205.20703125 65.833984375 c 6
 208.20703125 66.875 l 5
 210.291015625 67.5 l 5
 211.791015625 67.833984375 l 6
 213.140625 68.08984375 214.51171875 68.220703125 215.935546875 68.220703125 c 4
 226.073242188 68.220703125 234.6328125 61.4140625 237.291015625 52.125 c 4
 237.817382812 50.2265625 238.124023438 48.244140625 238.124023438 46.1787109375 c 4
 238.124023438 38.470703125 234.203125 31.6708984375 228.249023438 27.6669921875 c 5
 228.45703125 27.7919921875 l 5
 227.83203125 27.375 l 5
 226.791015625 26.75 l 6
 223.885742188 24.96875 220.678710938 23.5458984375 217.33203125 22.583984375 c 4
 208.416015625 19.6669921875 200.541015625 18.2919921875 192.666015625 18.2919921875 c 4
 165.58203125 18.375 127.874023438 41.625 127.374023438 85.375 c 4
 127.166015625 110 139.499023438 132.458984375 161.291015625 146.916992188 c 4
 186.416015625 163.541992188 229.70703125 169.125 269.999023438 144.5 c 4
 319.499023438 114.208984375 332.416015625 54.7919921875 319.499023438 14.333984375 c 4
 300.70703125 -44.3330078125 247.916015625 -75.666015625 178.166015625 -69.416015625 c 4
 128.749023438 -65 82.8740234375 -38.9580078125 55.541015625 0.333984375 c 4
 43.45703125 17.708984375 34.4990234375 37.125 29.666015625 56.458984375 c 4
 18.4990234375 100.625 29.791015625 147.625 38.166015625 168.458984375 c 4
 64.8740234375 234.583984375 115.999023438 291.541992188 190.041015625 337.666992188 c 6
 194.666015625 340.583984375 l 6
 352.08203125 437.375 470.83203125 426.791992188 552.33203125 424 c 4
 648.499023438 420.666992188 751.041015625 387.5 765.166015625 382.75 c 5
 765.791015625 414.583984375 l 5
 765.791015625 414.583984375 765.83203125 415.25 766.20703125 415.583984375 c 4
 766.666015625 416.041992188 767.291015625 415.875 767.291015625 415.875 c 6
 773.791015625 414.958984375 911.916015625 394.458984375 970.166015625 360.541992188 c 4
 977.374023438 356.333984375 980.916015625 351.875 985.33203125 347.333984375 c 4
 1001.45703125 330.666992188 1022.70703125 261.458984375 1024.99902344 247.166992188 c 4
 1025.08203125 246.583984375 1024.37402344 246 1024.08203125 245.75 c 5
860.624023438 300.375 m 4
 860.603515625 299.741210938 860.629882812 299.134765625 860.629882812 298.497070312 c 4
 860.629882812 266.533203125 885.959960938 240.438476562 917.624023438 239.208984375 c 4
 933.499023438 238.666992188 948.541015625 244.25 960.08203125 255.083984375 c 4
 971.58203125 265.791992188 978.20703125 280.416992188 978.83203125 296.208984375 c 4
 978.853515625 296.854492188 978.829101562 297.47265625 978.829101562 298.124023438 c 4
 978.829101562 330.107421875 953.450195312 356.209960938 921.749023438 357.375 c 4
 921.025390625 357.401367188 920.314453125 357.412109375 919.583984375 357.412109375 c 4
 904.046875 357.412109375 889.905273438 351.384765625 879.374023438 341.541992188 c 4
 867.83203125 330.791992188 861.20703125 316.166992188 860.624023438 300.375 c 4
EndSplineSet
Validated: 33
EndChar

StartChar: uniEC2F
Encoding: 60463 60463 20
Width: 862
VWidth: 512
Flags: W
HStem: 0 306<255.374 326 530.695 630.626>
LayerCount: 2
Fore
SplineSet
326 303 m 1
 326 401 l 1
 255 328 l 1
 263 323 269 319 275 315 c 0
 285 311 287 312 297 308 c 0
 303 307 308 307 313 306 c 256
 318 305 322 303 326 303 c 1
683 310 m 1
 683 310 683 311 686 308 c 0
 687 308 687 308 690 307 c 256
 693 306 699 306 703 306 c 0
 707 305 710 303 715 303 c 0
 720 303 723 305 728 306 c 0
 733 306 738 305 744 308 c 0
 749 311 756 312 764 315 c 0
 770 319 775 323 783 328 c 1
 732 383 l 1
 555 558 l 1
 477 481 l 1
 374 588 l 1
 112 328 l 1
 120 323 126 319 132 315 c 0
 140 312 147 311 153 308 c 0
 158 305 163 306 168 306 c 0
 173 305 177 303 182 303 c 0
 187 303 192 305 196 306 c 0
 200 306 202 306 205 307 c 256
 208 308 210 309 211 310 c 0
 214 310 213 310 213 310 c 1
 331 428 l 1
 372 470 l 1
 489 352 l 1
 532 310 l 1
 532 310 529 311 532 308 c 0
 533 308 536 308 539 307 c 256
 542 306 544 306 548 306 c 0
 552 305 555 303 560 303 c 0
 565 303 570 305 575 306 c 0
 580 306 585 305 591 308 c 0
 596 311 603 312 611 315 c 0
 617 319 623 323 631 328 c 1
 538 421 l 1
 555 438 l 1
 637 359 l 1
 683 310 l 1
682 802 m 1
 821 387 l 1
 682 0 l 1
 222 0 l 1
 41 409 l 1
 222 802 l 1
 682 802 l 1
539 420 m 1
 476 483 l 1
 481 487 l 1
 545 425 l 1
 539 420 l 1
EndSplineSet
Validated: 5
EndChar

StartChar: uniEC30
Encoding: 60464 60464 21
Width: 910
VWidth: 512
Flags: W
HStem: 0 107<323.134 586.866> 281 36<560.434 579.717> 705 98<322.426 510.5>
VStem: 54 158<345.5 608.5> 685 171<453.416 532.866>
LayerCount: 2
Fore
SplineSet
54 401 m 4
 54 512 93 607 171 685 c 4
 249 763 344 803 455 803 c 4
 566 803 661 763 739 685 c 4
 817 607 856 512 856 401 c 4
 856 290 817 196 739 118 c 4
 661 40 566 0 455 0 c 4
 344 0 249 40 171 118 c 4
 93 196 54 290 54 401 c 4
508 502 m 5
 519 525 521 554 513 591 c 4
 504 631 482 661 449 683 c 4
 426 698 402 705 377 705 c 4
 344 704 309 693 276 671 c 4
 233 642 212 618 212 599 c 4
 212 590 218 572 231 547 c 4
 244 521 257 493 273 462 c 4
 289 431 311 389 341 335 c 4
 371 281 392 248 403 237 c 4
 412 228 424 223 435 224 c 4
 446 225 453 231 456 241 c 4
 460 255 457 274 447 299 c 6
 406 406 l 5
 452 422 486 453 508 500 c 5
 508 502 l 5
413 549 m 4
 405 577 389 599 367 616 c 4
 361 621 356 624 353 625 c 4
 344 628 337 628 333 623 c 4
 329 618 326 611 327 602 c 4
 328 593 328 584 330 577 c 4
 332 570 334 562 336 556 c 4
 347 525 361 502 377 486 c 4
 381 481 385 478 389 478 c 4
 397 476 404 480 409 489 c 4
 412 494 414 501 414 508 c 4
 415 513 416 519 416 524 c 4
 416 532 415 541 413 549 c 4
583 240 m 4
 586 251 586 262 580 271 c 4
 574 280 565 284 554 281 c 4
 541 277 533 268 530 255 c 4
 527 242 531 231 540 224 c 4
 550 216 561 215 571 221 c 4
 578 225 582 232 583 240 c 4
569 317 m 4
 575 315 583 318 591 328 c 4
 599 338 615 363 637 403 c 6
 660 447 l 6
 674 475 682 495 685 506 c 4
 688 520 685 531 677 539 c 4
 666 549 652 557 635 560 c 4
 616 563 601 560 591 552 c 4
 583 544 576 527 572 503 c 4
 555 385 554 323 569 317 c 4
268 107 m 5
 641 107 l 5
 641 160 l 5
 268 160 l 5
 268 107 l 5
EndSplineSet
Validated: 41
EndChar

StartChar: uniEC31
Encoding: 60465 60465 22
Width: 1130
VWidth: 512
Flags: W
HStem: 290 69<639.014 825.837> 431 23<983.182 1018.56> 660 55<264.704 461.25> 761 39<108.25 111.25 111.251 351.221>
VStem: 976.25 43<10.103 108.267>
LayerCount: 2
Fore
SplineSet
202.25 800 m 2
 203.25 800 l 2
 297.25 801 372.25 796 431.25 789 c 0
 490.25 782 542.25 768 590.25 748 c 2
 625.25 735 l 2
 628.25 733 629.25 730 629.25 726 c 2
 629.25 689 l 2
 631.25 665 639.25 645 647.25 635 c 0
 655.25 625 667.25 617 682.25 614 c 0
 697.25 611 713.25 608 731.25 606 c 0
 749.25 604 771.25 596 797.25 588 c 0
 823.25 580 848.25 566 872.25 548 c 1
 845.25 576 811.25 606 772.25 636 c 1
 769.25 638 767.25 641 765.25 643 c 0
 764.25 644 764.25 646 763.25 648 c 2
 761.25 648 l 1
 761.25 648 761.25 648 760.25 649 c 0
 759.25 650 759.25 651 759.25 653 c 2
 759.25 653 759.25 652 758.25 656 c 0
 758.25 658 758.25 660 758.25 660 c 2
 758.25 661 758.25 661 758.25 661 c 1
 758.25 661 758.25 661 758.25 662 c 0
 759.25 667 761.25 673 766.25 675 c 0
 768.25 677 774.25 677 777.25 677 c 0
 779.25 677 781.25 676 784.25 675 c 0
 787.25 674 791.25 671 795.25 669 c 0
 848.25 638 893.25 595 930.25 546 c 0
 931.25 545 932.25 545 933.25 544 c 0
 935.25 542 935.25 541 936.25 540 c 0
 938.25 538 939.25 534 941.25 532 c 2
 941.25 532 941.25 532 941.25 530 c 1
 943.25 528 945.25 527 946.25 525 c 2
 946.25 524 l 0
 946.25 524 947.25 524 947.25 523 c 0
 948.25 522 949.25 521 949.25 519 c 0
 950.25 518 951.25 517 951.25 516 c 0
 951.25 515 952.25 513 953.25 512 c 0
 958.25 502 963.25 492 968.25 487 c 0
 972.25 484 972.25 480 969.25 475 c 0
 970.25 473 972.25 473 973.25 472 c 0
 985.25 464 996.25 456 1008.25 454 c 0
 1014.25 454 1019.25 451 1019.25 446 c 0
 1019.25 441 1016.25 439 1011.25 437 c 0
 1009.25 436 1007.25 435 1003.25 434 c 0
 999.25 433 997.25 431 996.25 431 c 0
 995.25 431 993.25 429 991.25 428 c 0
 989.25 427 987.25 425 986.25 424 c 0
 984.25 422 984.25 423 981.25 420 c 0
 979.25 418 976.25 415 974.25 412 c 0
 969.25 406 963.25 406 958.25 412 c 0
 949.25 425 935.25 436 920.25 445 c 0
 918.25 446 910.25 449 900.25 453 c 0
 890.25 458 882.25 463 879.25 465 c 0
 877.25 467 876.25 471 874.25 473 c 0
 872.25 475 871.25 478 871.25 480 c 0
 870.25 483 870.25 483 869.25 486 c 0
 869.25 488 869.25 489 869.25 490 c 0
 869.25 492 868.25 493 866.25 494 c 0
 862.25 497 850.25 504 832.25 510 c 0
 792.25 528 765.25 539 750.25 543 c 0
 737.25 546 722.25 548 703.25 548 c 0
 683.25 548 665.25 543 650.25 535 c 0
 635.25 527 622.25 516 616.25 503 c 0
 610.25 490 607.25 474 606.25 459 c 0
 604.25 435 610.25 413 625.25 394 c 0
 640.25 375 664.25 365 692.25 363 c 0
 697.25 363 708.25 361 723.25 360 c 0
 725.25 359 727.25 359 730.25 359 c 0
 734.25 359 735.25 359 737.25 359 c 0
 740.25 358 743.25 358 744.25 358 c 0
 778.25 358 813.25 353 850.25 347 c 0
 893.25 338 933.25 324 969.25 304 c 0
 1005.25 284 1032.25 262 1052.25 237 c 0
 1061.25 224 1072.25 206 1080.25 184 c 0
 1084.25 175 1087.25 166 1089.25 159 c 0
 1091.25 155 1092.25 150 1092.25 148 c 0
 1092.25 141 1090.25 134 1086.25 130 c 0
 1084.25 128 1080.25 126 1077.25 125 c 0
 1074.25 124 1070.25 124 1067.25 125 c 256
 1064.25 126 1059.25 127 1057.25 130 c 0
 1055.25 133 1053.25 137 1051.25 141 c 0
 1044.25 163 1028.25 186 1006.25 209 c 0
 984.25 232 961.25 248 937.25 254 c 1
 970.25 214 993.25 165 1008.25 106 c 0
 1012.25 87 1017.25 70 1019.25 54 c 0
 1020.25 46 1020.25 38 1019.25 34 c 0
 1019.25 30 1018.25 26 1017.25 24 c 256
 1016.25 22 1013.25 17 1011.25 15 c 0
 1008.25 12 1004.25 10 999.25 10 c 0
 993.25 10 987.25 14 983.25 19 c 0
 981.25 21 980.25 24 979.25 26 c 0
 977.25 31 976.25 36 976.25 41 c 0
 976.25 44 975.25 53 973.25 62 c 256
 971.25 71 966.25 83 961.25 96 c 0
 906.25 229 830.25 293 733.25 290 c 0
 709.25 291 690.25 295 672.25 297 c 0
 638.25 303 608.25 317 585.25 341 c 0
 562.25 365 547.25 392 541.25 423 c 0
 535.25 452 537.25 483 549.25 512 c 0
 561.25 541 582.25 568 610.25 588 c 1
 600.25 611 l 2
 599.25 613 598.25 614 594.25 621 c 1
 528.25 618 470.25 608 415.25 592 c 0
 360.25 576 299.25 552 230.25 522 c 1
 229.25 522 l 1
 209.25 512 190.25 502 175.25 496 c 0
 168.25 493 161.25 489 157.25 487 c 0
 155.25 486 152.25 486 150.25 486 c 1
 150.25 485 149.25 485 147.25 485 c 256
 145.25 485 144.25 485 143.25 485 c 0
 141.25 485 140.25 485 139.25 485 c 0
 136.25 486 132.25 488 130.25 490 c 0
 128.25 492 126.25 496 125.25 499 c 0
 125.25 502 126.25 507 126.25 509 c 0
 126.25 511 128.25 514 130.25 516 c 0
 133.25 519 132.25 519 137.25 524 c 0
 141.25 527 151.25 533 160.25 539 c 0
 181.25 552 203.25 565 227.25 577 c 0
 289.25 607 367.25 636 461.25 660 c 1
 402.25 660 402.25 660 400.25 660 c 0
 320.25 657 231.25 647 129.25 634 c 0
 111.25 632 96.25 630 81.25 629 c 0
 74.25 628 67.25 628 64.25 628 c 0
 60.25 628 60.25 628 59.25 628 c 0
 58.25 628 58.25 628 57.25 628 c 0
 55.25 628 53.25 628 52.25 628 c 256
 51.25 628 49.25 628 48.25 629 c 0
 46.25 630 45.25 631 43.25 633 c 256
 41.25 635 40.25 638 39.25 641 c 0
 37.25 645 37.25 649 39.25 653 c 0
 41.25 657 44.25 661 48.25 663 c 0
 51.25 665 58.25 667 64.25 669 c 0
 72.25 671 94.25 675 127.25 681 c 0
 214.25 696 332.25 709 482.25 715 c 1
 397.25 738 288.25 754 157.25 761 c 0
 136.25 762 125.25 762 123.25 762 c 0
 120.25 762 116.25 762 114.25 763 c 0
 112.25 763 111.25 764 110.25 765 c 2
 108.25 765 l 2
 106.25 766 105.25 766 103.25 768 c 0
 101.25 772 99.25 778 99.25 782 c 0
 99.25 787 101.25 791 104.25 793 c 0
 106.25 795 107.25 796 109.25 797 c 2
 111.25 797 l 1
 111.25 798 112.25 799 113.25 799 c 0
 115.25 799 115.25 799 115.25 799 c 2
 117.25 799 127.25 799 142.25 800 c 0
 149.25 800 202.25 800 202.25 800 c 2
EndSplineSet
Validated: 37
EndChar

StartChar: uniEC32
Encoding: 60466 60466 23
Width: 890
VWidth: 512
Flags: W
HStem: 383 45<125.5 385.639 503.223 765.447>
VStem: 421.5 46<84 324 461.939 723>
LayerCount: 2
Fore
SplineSet
43.5 404 m 5
 57.5 418 57.5 418 84.5 445 c 4
 111.5 472 111.5 472 125.5 486 c 5
 125.5 428 l 5
 363.5 428 l 6
 366.5 426 369.5 423 372.5 420 c 4
 375.5 417 378.5 415 381.5 411 c 4
 384.5 407 386.5 405 388.5 404 c 5
 386.5 401 383.5 397 378.5 393 c 4
 373.5 389 370.5 385 368.5 383 c 6
 125.5 383 l 5
 125.5 322 l 5
 84.5 363 84.5 363 43.5 404 c 5
765.5 432 m 6
 765.5 486 l 5
 765.5 486 764.5 486 846.5 404 c 5
 832.5 390 832.5 390 805.5 363 c 4
 778.5 336 779.5 336 765.5 322 c 5
 765.5 380 l 5
 526.5 380 l 6
 522.5 383 518.5 388 512.5 394 c 4
 503.5 403 503.5 402 501.5 404 c 4
 503.5 407 507.5 410 512.5 414 c 4
 517.5 418 519.5 423 521.5 426 c 4
 534.5 426 572.5 426 632.5 425 c 4
 692.5 424 729.5 425 741.5 426 c 4
 755.5 425 764.5 426 765.5 432 c 6
363.5 723 m 5
 404.5 764 403.5 764 444.5 805 c 5
 454.5 795 455.5 795 471.5 779 c 4
 487.5 763 487.5 763 500.5 750 c 4
 513.5 737 514.5 735 526.5 723 c 5
 468.5 723 l 5
 468.5 487 l 6
 467.5 484 465.5 480 462.5 477 c 4
 459.5 474 456.5 471 452.5 468 c 4
 448.5 465 445.5 462 444.5 460 c 5
 433.5 471 434.5 471 424.5 481 c 5
 424.5 723 l 5
 363.5 723 l 5
421.5 324 m 6
 426.5 329 426.5 329 434.5 337 c 4
 442.5 345 441.5 344 444.5 347 c 5
 447.5 344 448.5 344 455.5 337 c 4
 460.5 332 464.5 329 467.5 327 c 6
 467.5 84 l 5
 526.5 84 l 5
 512.5 70 512.5 70 485.5 43 c 4
 458.5 16 458.5 16 444.5 2 c 5
 363.5 84 l 5
 421.5 84 l 5
 421.5 324 l 6
151.5 512 m 5
 172.5 534 194.5 555 216.5 576 c 5
 228.5 564 228.5 564 246.5 546 c 4
 264.5 528 265.5 527 278.5 514 c 4
 291.5 501 291.5 501 307.5 485 c 4
 323.5 469 324.5 468 338.5 454 c 5
 151.5 454 l 5
 151.5 483 151.5 483 151.5 512 c 5
337.5 696 m 5
 396.5 696 l 5
 396.5 509 l 5
 274.5 631 l 5
 337.5 696 l 5
270.5 173 m 5
 290.5 193 291.5 194 332.5 235 c 4
 373.5 276 373.5 276 393.5 296 c 5
 393.5 109 l 5
 391.5 109 l 5
 390.5 109 l 5
 388.5 109 l 5
 386.5 109 l 5
 385.5 109 l 5
 383.5 109 l 5
 381.5 109 l 5
 379.5 109 l 5
 377.5 109 l 5
 376.5 109 l 5
 374.5 109 l 5
 372.5 109 l 5
 371.5 109 l 5
 369.5 109 l 5
 368.5 109 l 5
 366.5 109 l 5
 364.5 109 l 5
 363.5 109 l 5
 361.5 109 l 5
 360.5 109 l 5
 359.5 109 l 5
 357.5 109 l 5
 355.5 109 l 5
 354.5 109 l 5
 352.5 109 l 5
 350.5 109 l 5
 349.5 109 l 5
 347.5 109 l 5
 345.5 109 l 5
 344.5 109 l 5
 342.5 109 l 5
 340.5 109 l 5
 338.5 109 l 5
 335.5 109 l 5
 327.5 117 326.5 117 314.5 129 c 4
 302.5 141 302.5 142 291.5 153 c 4
 280.5 164 280.5 163 270.5 173 c 5
151.5 296 m 5
 151.5 306 151.5 304 151.5 324 c 4
 151.5 344 151.5 344 151.5 354 c 5
 338.5 354 l 5
 328.5 343 315.5 329 300.5 315 c 4
 285.5 301 269.5 285 255.5 271 c 4
 233.5 249 233.5 248 216.5 231 c 5
 151.5 296 l 5
495.5 510 m 5
 495.5 699 l 5
 496.5 699 l 5
 497.5 699 l 5
 499.5 699 l 5
 501.5 699 l 5
 502.5 699 l 5
 504.5 699 l 5
 506.5 699 l 5
 507.5 699 l 5
 509.5 699 l 5
 511.5 699 l 5
 512.5 699 l 5
 514.5 699 l 5
 515.5 699 l 5
 516.5 699 l 5
 518.5 699 l 5
 520.5 699 l 5
 521.5 699 l 5
 523.5 699 l 5
 525.5 699 l 5
 526.5 699 l 5
 528.5 697 l 5
 530.5 697 l 5
 531.5 697 l 5
 533.5 697 l 5
 534.5 697 l 5
 535.5 697 l 5
 537.5 697 l 5
 538.5 697 l 5
 540.5 697 l 5
 542.5 697 l 5
 543.5 697 l 5
 545.5 697 l 5
 547.5 697 l 5
 548.5 697 l 5
 550.5 697 l 5
 553.5 697 l 5
 574.5 676 595.5 655 617.5 634 c 5
 495.5 510 l 5
550.5 454 m 5
 672.5 576 l 5
 693.5 554 714.5 533 736.5 512 c 5
 736.5 502 736.5 503 736.5 483 c 4
 736.5 463 736.5 464 736.5 454 c 5
 550.5 454 l 5
673.5 233 m 5
 653.5 253 653.5 253 612.5 294 c 4
 571.5 335 572.5 336 552.5 356 c 5
 738.5 356 l 5
 738.5 345 738.5 344 738.5 325 c 4
 738.5 306 738.5 307 738.5 296 c 5
 673.5 233 l 5
495.5 114 m 5
 495.5 300 l 5
 515.5 280 515.5 281 556.5 240 c 4
 597.5 199 597.5 198 617.5 178 c 5
 553.5 114 l 5
 524.5 114 524.5 114 495.5 114 c 5
151.5 551 m 5
 151.5 697 l 5
 299.5 697 l 5
 270.5 669 248.5 648 233.5 633 c 5
 396.5 472 l 5
 396.5 454 l 5
 376.5 454 l 5
 270.5 560 269.5 561 216.5 614 c 5
 209.5 607 187.5 586 151.5 551 c 5
495.5 356 m 5
 514.5 356 l 5
 675.5 194 l 5
 740.5 258 l 5
 740.5 110 l 5
 593.5 110 l 5
 658.5 177 l 5
 495.5 338 l 5
 495.5 356 l 5
651.5 639 m 5
 592.5 699 l 5
 740.5 699 l 5
 740.5 551 l 5
 673.5 617 l 5
 512.5 454 l 5
 496.5 454 l 5
 496.5 474 l 5
 641.5 620 l 5
 651.5 639 l 5
374.5 354 m 5
 393.5 354 l 5
 393.5 334 l 5
 234.5 173 l 5
 299.5 110 l 5
 153.5 110 l 5
 153.5 257 l 5
 217.5 192 l 5
 374.5 354 l 5
EndSplineSet
Validated: 37
EndChar

StartChar: uniEC33
Encoding: 60467 60467 24
Width: 980
VWidth: 512
Flags: W
HStem: 107 1<925.406 934.501> 116 23<512.193 551.481> 119 4<927 932> 129 2<923.299 936.776> 585 48<337.142 354> 585 30<394.48 476.855> 638 50<562 568 571 620.102> 641 5<540.069 553.715> 671 5<508.069 514.225> 674 14<519.823 568.983> 710 92<350.703 629.297>
VStem: 916 3<112.224 125.819> 926 9<119 126> 926 1<112 118> 941 1<114.499 123.44>
LayerCount: 2
Fore
SplineSet
490 802 m 4xa032
 616 802 724 756 812 668 c 4
 900 580 945 473 945 347 c 4
 945 259 921 175 872 101 c 5
 854 104 837 107 817 107 c 4
 785 107 757 103 733 93 c 4
 731 92 730 88 730 85 c 6
 730 85 730 85 730 83 c 4
 732 79 732 75 729 72 c 4
 726 69 718 65 707 63 c 4
 698 62 692 59 683 52 c 4
 674 45 665 38 657 28 c 4
 645 14 647 14 647 14 c 6
 633 3 616 -1 601 0 c 5
 621 25 631 41 632 44 c 4
 635 52 640 59 647 67 c 4
 654 75 659 80 661 83 c 4
 673 101 680 112 681 119 c 4
 683 123 684 130 685 140 c 4
 686 150 686 156 686 157 c 4
 686 158 688 163 691 174 c 4
 694 185 696 196 697 200 c 4
 696 201 696 201 695 201 c 4
 694 201 691 201 687 200 c 4
 683 199 678 196 675 195 c 4
 669 193 670 194 664 192 c 4
 661 191 657 190 655 190 c 4
 648 190 643 191 634 194 c 4
 625 197 618 200 614 200 c 260
 610 200 605 197 596 194 c 4
 587 191 580 188 576 188 c 4
 575 188 572 190 565 193 c 4
 558 196 554 197 547 197 c 4
 544 198 533 197 513 193 c 4
 493 189 475 187 459 188 c 4
 439 188 423 197 405 213 c 4
 387 229 377 241 369 252 c 4
 361 262 355 264 346 255 c 4
 342 253 336 251 332 252 c 4
 328 253 323 257 322 260 c 4
 307 285 291 302 276 306 c 4
 261 309 250 306 241 296 c 4
 232 286 228 278 229 266 c 4
 230 259 232 253 235 249 c 4
 238 245 242 239 245 235 c 4
 248 231 251 227 252 225 c 4
 260 212 266 204 275 201 c 260
 284 198 286 192 284 184 c 4
 283 180 276 178 265 178 c 4
 254 177 248 177 240 184 c 4
 231 188 225 196 218 206 c 4
 210 219 200 225 185 225 c 4
 178 225 173 223 166 220 c 4
 142 208 117 203 90 203 c 6
 58 203 l 5
 43 249 35 297 35 347 c 4
 35 473 80 580 168 668 c 4
 256 756 364 802 490 802 c 4xa032
566 710 m 4
 553 710 540 707 527 704 c 4
 526 704 523 704 516 702 c 4
 509 700 504 699 500 698 c 4
 496 697 490 694 482 693 c 4
 474 692 466 691 457 692 c 4
 448 693 439 696 428 698 c 4
 364 712 326 696 314 651 c 6
 295 570 l 6
 292 563 291 559 294 550 c 4
 297 541 299 533 306 525 c 4
 313 517 326 509 348 500 c 4
 370 491 397 484 431 476 c 4
 453 473 469 470 481 463 c 4
 493 456 499 452 501 449 c 4
 503 446 506 440 508 433 c 4
 512 411 520 399 531 391 c 4
 540 384 537 380 524 378 c 4
 522 378 522 378 520 378 c 4
 510 377 494 379 470 385 c 4
 446 391 421 398 393 409 c 4
 365 420 340 431 319 443 c 4
 276 468 263 497 278 528 c 5
 238 531 204 529 177 521 c 4
 150 513 132 502 128 484 c 4
 121 462 135 437 163 408 c 4
 191 379 232 350 284 322 c 4
 336 294 392 273 451 255 c 4
 547 225 636 219 719 239 c 4
 802 259 849 298 860 356 c 4
 863 374 862 391 853 406 c 4
 844 421 832 433 813 444 c 4
 794 455 771 463 746 467 c 5
 739 444 728 429 707 419 c 4
 706 418 704 418 703 419 c 4
 702 420 702 422 703 424 c 4
 711 436 716 445 719 453 c 4
 726 467 726 486 718 510 c 4
 708 543 696 579 681 612 c 4
 666 645 651 668 638 681 c 4
 622 699 597 709 566 710 c 4
566 688 m 6x8232
 570 688 l 6
 580 688 589 686 597 683 c 4
 605 680 610 677 614 674 c 4
 618 671 621 666 621 662 c 4
 621 658 618 652 614 649 c 4
 610 646 605 643 596 641 c 4x8172
 587 639 578 638 568 638 c 4x8232
 558 638 551 639 542 641 c 4
 541 641 540 643 540 644 c 4
 540 645 541 646 542 646 c 4
 564 650 572 654 571 662 c 4
 570 673 552 677 518 674 c 4x8172
 516 674 513 672 510 671 c 5x80b2
 509 671 508 673 508 674 c 260x8072
 508 675 509 676 510 676 c 4x80b2
 521 683 534 686 552 687 c 4
 556 688 562 688 566 688 c 6x8232
352 633 m 4x8832
 355 633 359 630 362 627 c 4
 371 616 380 612 391 612 c 4
 394 612 402 612 413 613 c 4
 424 614 433 615 442 615 c 4
 466 615 480 611 481 600 c 4
 481 597 480 593 477 591 c 4
 474 589 465 586 453 585 c 4x8432
 418 583 397 575 387 564 c 4
 383 561 377 561 373 564 c 4
 369 567 363 571 360 575 c 6
 354 585 l 6
 347 586 343 590 339 598 c 4
 335 606 334 613 337 622 c 4
 340 630 345 633 352 633 c 4x8832
588 142 m 5
 590 142 l 5
 597 138 595 131 591 122 c 4
 589 115 585 111 581 108 c 4
 570 99 559 99 546 108 c 4
 537 115 530 117 522 116 c 4xc032
 518 115 514 116 512 119 c 4
 510 122 511 126 513 129 c 4xb032
 514 133 517 137 524 139 c 4xc032
 531 141 537 139 547 135 c 4
 561 126 572 125 576 129 c 4x9032
 579 131 584 135 588 142 c 5
930 131 m 4xb032
 939 131 942 128 942 119 c 260
 942 110 939 107 930 107 c 4
 921 107 916 110 916 119 c 260
 916 128 921 131 930 131 c 4xb032
930 129 m 260
 922 129 919 127 919 119 c 260
 919 111 922 108 930 108 c 260
 938 108 941 111 941 119 c 260
 941 127 938 129 930 129 c 260
926 126 m 5x803a
 932 126 l 6
 934 126 935 124 935 122 c 260
 935 120 934 119 932 118 c 5
 935 112 l 5x803a
 933 112 l 5
 930 118 l 5
 927 118 l 5
 927 112 l 5
 926 112 l 5x8036
 926 126 l 5x803a
927 123 m 5xa036
 930 123 l 6
 932 123 933 124 933 122 c 4
 933 120 932 119 930 119 c 6
 927 119 l 5
 927 123 l 5xa036
EndSplineSet
Validated: 37
EndChar

StartChar: uniEC34
Encoding: 60468 60468 25
Width: 780
VWidth: 512
Flags: W
HStem: 359.743 10.9951<453.942 482.023> 362.884 6.28418<457.486 473.482> 553.737 16.4922<406.678 481.577> 711.602 64.4033<363.82 363.872 364.611 451.488> 774.435 1.57031<364.164 364.867> 779.146 1.57129<403.09 416.823> 787.001 3.14062<400.054 413.78>
VStem: 69.2949 0.785156<531.059 534.103> 70.0801 6.2832<531.112 533.055 544.116 559.038> 75.5781 39.2705<338.05 470.778> 76.3633 42.4131<338.05 436.932 438.061 524.131> 315.126 18.8486<425.717 480.22> 544.462 6.28418<461.845 468.128> 636.354 41.626<432.393 455.562 486.979 515.153 531.109 590.127> 677.98 0.78418<427.013 439.024> 685.048 0.785156<434.06 437.587>
LayerCount: 2
Fore
SplineSet
70.080078125 530.959960938 m 1x2699
 70.080078125 533.0546875 69.818359375 535.672851562 69.294921875 538.814453125 c 0x2719
 68.771484375 541.95703125 69.033203125 545.09765625 70.080078125 548.239257812 c 0x2699
 71.1279296875 551.380859375 73.2216796875 555.045898438 76.36328125 559.234375 c 1x2639
 73.2216796875 543.526367188 71.1279296875 534.102539062 70.080078125 530.959960938 c 1x2699
96.783203125 618.924804688 m 1
 96.783203125 617.877929688 98.6171875 617.616210938 102.28125 618.138671875 c 0
 105.947265625 618.663085938 105.161132812 614.736328125 99.9248046875 606.358398438 c 0
 96.783203125 603.217773438 96.783203125 603.217773438 93.642578125 600.076171875 c 2
 92.0703125 600.076171875 l 1
 96.2607421875 606.358398438 97.8310546875 612.642578125 96.783203125 618.924804688 c 1
406.23046875 787.000976562 m 2
 399.948242188 787.000976562 l 1
 402.041992188 788.047851562 414.608398438 789.095703125 437.647460938 790.141601562 c 1
 434.505859375 790.141601562 429.270507812 789.879882812 421.939453125 789.357421875 c 0
 414.608398438 788.833984375 409.373046875 788.047851562 406.23046875 787.000976562 c 2
693.6875 430.428710938 m 1
 689.499023438 402.154296875 681.12109375 375.974609375 668.555664062 351.889648438 c 1
 680.075195312 374.927734375 687.928710938 399.537109375 692.1171875 425.716796875 c 1
 693.6875 430.428710938 l 1
329.262695312 351.889648438 m 2
 333.974609375 339.322265625 l 1
 325.596679688 352.9375 320.360351562 362.883789062 318.266601562 369.16796875 c 1x6619
 323.501953125 359.743164062 327.168945312 353.983398438 329.262695312 351.889648438 c 2
308.841796875 350.318359375 m 1
 313.030273438 342.98828125 317.481445312 335.133789062 322.194335938 326.755859375 c 0
 326.907226562 318.379882812 330.833007812 312.095703125 333.974609375 307.90625 c 1
 330.833007812 310.000976562 321.932617188 320.997070312 307.271484375 340.89453125 c 1
 308.841796875 350.318359375 l 1
637.139648438 446.137695312 m 1
 638.186523438 437.759765625 633.997070312 421.00390625 624.573242188 395.872070312 c 1
 613.577148438 389.587890625 l 2
 610.434570312 383.3046875 609.126953125 378.592773438 609.651367188 375.451171875 c 0
 610.172851562 372.310546875 609.388671875 368.120117188 607.29296875 362.883789062 c 0
 576.92578125 335.658203125 559.122070312 321.520507812 553.88671875 320.473632812 c 0
 551.791992188 321.520507812 553.88671875 325.185546875 560.169921875 331.46875 c 1
 555.98046875 328.327148438 551.791992188 324.662109375 547.603515625 320.473632812 c 0
 543.4140625 316.28515625 538.963867188 312.880859375 534.251953125 310.263671875 c 0
 529.5390625 307.64453125 522.995117188 305.2890625 514.616210938 303.194335938 c 1
 513.045898438 304.764648438 l 1
 475.346679688 286.963867188 436.600585938 292.459960938 396.806640625 321.259765625 c 0
 357.012695312 350.056640625 337.639648438 387.493164062 338.6875 433.571289062 c 1
 338.6875 432.5234375 337.1171875 429.905273438 333.974609375 425.716796875 c 1
 332.926757812 450.849609375 338.42578125 474.149414062 350.46875 495.616210938 c 0
 362.510742188 517.084960938 379.52734375 533.0546875 401.51953125 543.526367188 c 256
 423.509765625 554 445.762695312 557.40234375 468.278320312 553.737304688 c 0
 490.79296875 550.072265625 509.904296875 540.909179688 525.612304688 526.248046875 c 1
 501.52734375 557.6640625 471.158203125 572.325195312 434.505859375 570.229492188 c 0
 415.657226562 570.229492188 397.854492188 564.994140625 381.099609375 554.521484375 c 0
 364.34375 544.05078125 352.82421875 532.0078125 346.541992188 518.39453125 c 1
 339.2109375 513.158203125 332.665039062 502.94921875 326.907226562 487.763671875 c 0
 321.146484375 472.579101562 317.219726562 463.938476562 315.125976562 461.844726562 c 0
 309.889648438 422.05078125 313.81640625 390.373046875 326.907226562 366.811523438 c 0
 339.995117188 343.249023438 362.772460938 319.42578125 395.235351562 295.33984375 c 0
 399.424804688 294.29296875 400.99609375 291.936523438 399.948242188 288.271484375 c 0
 398.377929688 282.774414062 398.377929688 282.774414062 398.377929688 282.774414062 c 1
 379.52734375 292.198242188 362.772460938 305.2890625 348.111328125 322.043945312 c 1
 357.537109375 308.430664062 366.438476562 298.482421875 374.814453125 292.198242188 c 1
 371.672851562 293.24609375 368.008789062 295.33984375 363.8203125 298.482421875 c 0
 359.630859375 301.624023438 355.442382812 305.2890625 351.252929688 309.477539062 c 0
 347.063476562 313.666992188 343.399414062 317.85546875 340.2578125 322.043945312 c 0
 337.1171875 326.233398438 334.237304688 329.63671875 331.618164062 332.25390625 c 0
 329.000976562 334.872070312 327.168945312 336.180664062 326.12109375 336.180664062 c 1
 340.78125 308.953125 367.22265625 286.963867188 405.447265625 270.20703125 c 0
 443.668945312 253.452148438 475.346679688 250.310546875 500.479492188 260.782226562 c 1
 468.016601562 258.688476562 441.8359375 261.306640625 421.939453125 268.63671875 c 0
 418.797851562 270.731445312 415.39453125 273.086914062 411.729492188 275.705078125 c 0
 408.064453125 278.323242188 404.922851562 280.94140625 402.303710938 283.559570312 c 0
 399.686523438 286.177734375 398.900390625 288.009765625 399.948242188 289.057617188 c 0
 473.251953125 260.782226562 538.702148438 269.68359375 596.298828125 315.760742188 c 0
 599.440429688 318.901367188 599.440429688 318.901367188 603.366210938 322.829101562 c 0
 607.29296875 326.755859375 607.29296875 326.755859375 610.434570312 329.8984375 c 0
 612.529296875 331.9921875 614.885742188 334.086914062 617.50390625 336.180664062 c 0
 620.122070312 338.274414062 622.215820312 340.108398438 623.787109375 341.6796875 c 0
 625.358398438 343.249023438 626.928710938 344.55859375 628.5 345.606445312 c 0
 630.0703125 346.65234375 631.379882812 347.176757812 632.426757812 347.176757812 c 1
 629.286132812 344.03515625 627.9765625 341.6796875 628.5 340.108398438 c 0
 629.024414062 338.536132812 628.76171875 336.180664062 627.713867188 333.040039062 c 1
 631.90234375 340.370117188 633.474609375 346.390625 632.426757812 351.103515625 c 0
 631.379882812 355.815429688 635.043945312 363.408203125 643.422851562 373.879882812 c 1
 651.276367188 362.883789062 l 1
 650.228515625 369.16796875 653.89453125 380.6875 662.271484375 397.44140625 c 0
 670.649414062 414.198242188 674.314453125 427.811523438 673.267578125 438.283203125 c 0
 676.409179688 443.51953125 677.98046875 441.948242188 677.98046875 433.571289062 c 0x763d
 677.98046875 426.240234375 676.409179688 417.338867188 673.267578125 406.8671875 c 1
 677.456054688 412.103515625 679.2890625 420.7421875 678.764648438 432.78515625 c 0x761b
 678.2421875 444.828125 677.98046875 452.419921875 677.98046875 455.5625 c 1
 683.216796875 442.99609375 685.833007812 435.666015625 685.833007812 433.571289062 c 1
 684.786132812 444.043945312 684.525390625 451.373046875 685.047851562 455.5625 c 0
 685.572265625 459.750976562 687.141601562 465.51171875 689.760742188 472.840820312 c 0
 692.379882812 480.170898438 694.2109375 484.883789062 695.258789062 486.978515625 c 0
 694.2109375 488.025390625 693.1640625 488.286132812 692.1171875 487.763671875 c 0
 691.069335938 487.240234375 690.022460938 486.978515625 688.974609375 486.978515625 c 0
 687.928710938 486.978515625 686.880859375 488.286132812 685.833007812 490.905273438 c 0
 684.786132812 493.522460938 684.263671875 498.497070312 684.263671875 505.827148438 c 0
 685.310546875 510.016601562 686.880859375 513.158203125 688.974609375 515.251953125 c 1
 683.739257812 517.34765625 679.55078125 526.771484375 676.409179688 543.526367188 c 0
 677.456054688 544.57421875 678.50390625 544.05078125 679.55078125 541.95703125 c 0
 680.598632812 539.861328125 681.90625 537.767578125 683.478515625 535.672851562 c 0
 685.047851562 533.579101562 686.357421875 532.0078125 687.405273438 530.959960938 c 1
 687.405273438 534.102539062 686.357421875 539.861328125 684.263671875 548.239257812 c 0
 682.168945312 556.6171875 681.12109375 562.899414062 681.12109375 567.087890625 c 0
 676.932617188 575.466796875 674.314453125 578.083984375 673.267578125 574.942382812 c 0
 672.220703125 572.848632812 670.649414062 573.89453125 668.555664062 578.083984375 c 0
 665.413085938 586.4609375 664.104492188 591.959960938 664.627929688 594.577148438 c 0
 665.151367188 597.196289062 666.459960938 598.243164062 668.555664062 597.71875 c 0
 670.649414062 597.196289062 672.744140625 596.934570312 674.837890625 596.934570312 c 0
 676.932617188 596.934570312 678.50390625 599.028320312 679.55078125 603.217773438 c 1
 690.022460938 587.508789062 700.494140625 559.7578125 710.966796875 519.963867188 c 1
 707.826171875 538.814453125 702.58984375 558.7109375 695.258789062 579.655273438 c 1
 696.306640625 578.608398438 696.306640625 582.272460938 695.258789062 590.650390625 c 0
 694.2109375 596.934570312 694.2109375 600.599609375 695.258789062 601.645507812 c 0
 696.306640625 601.645507812 698.400390625 597.981445312 701.541992188 590.650390625 c 1
 698.400390625 606.358398438 692.379882812 621.54296875 683.478515625 636.204101562 c 0
 674.576171875 650.864257812 664.627929688 664.478515625 653.6328125 677.043945312 c 0
 642.63671875 689.610351562 630.85546875 701.130859375 618.2890625 711.6015625 c 0
 605.723632812 722.07421875 593.15625 730.452148438 580.58984375 736.735351562 c 1
 590.015625 728.357421875 593.680664062 724.16796875 591.5859375 724.16796875 c 0
 586.350585938 726.262695312 582.423828125 728.357421875 579.8046875 730.452148438 c 0
 577.1875 732.546875 575.092773438 734.37890625 573.521484375 735.94921875 c 0
 571.951171875 737.520507812 570.903320312 738.829101562 570.380859375 739.876953125 c 0
 569.594726562 741.447265625 569.594726562 741.447265625 568.809570312 743.018554688 c 0
 568.28515625 744.065429688 567.5 745.11328125 566.453125 746.16015625 c 0
 561.216796875 750.349609375 554.672851562 751.395507812 546.818359375 749.301757812 c 0
 538.963867188 747.20703125 533.989257812 746.16015625 531.89453125 746.16015625 c 0
 524.564453125 750.349609375 518.020507812 753.751953125 512.259765625 756.370117188 c 0
 506.501953125 758.987304688 501.264648438 761.08203125 496.552734375 762.653320312 c 0
 491.840820312 764.224609375 487.389648438 765.533203125 483.201171875 766.580078125 c 0
 479.012695312 767.627929688 474.038085938 769.198242188 468.278320312 771.291992188 c 0
 462.518554688 773.387695312 456.498046875 775.481445312 450.212890625 777.577148438 c 1
 451.78515625 769.72265625 l 1
 445.500976562 772.864257812 436.338867188 773.387695312 424.295898438 771.291992188 c 0
 412.252929688 769.198242188 402.56640625 768.674804688 395.235351562 769.72265625 c 1
 412.514648438 776.004882812 l 1
 405.184570312 774.958007812 397.068359375 774.958007812 388.16796875 776.004882812 c 0x761d
 379.265625 777.052734375 371.150390625 776.529296875 363.8203125 774.434570312 c 1
 364.8671875 774.434570312 371.150390625 778.098632812 382.668945312 785.4296875 c 1
 374.814453125 783.859375 374.814453125 783.859375 359.107421875 780.717773438 c 0
 348.635742188 780.717773438 343.399414062 781.241210938 343.399414062 782.288085938 c 1
 339.2109375 781.241210938 331.879882812 778.360351562 321.408203125 773.649414062 c 0
 310.936523438 768.936523438 302.03515625 765.009765625 294.705078125 761.868164062 c 0
 287.375 758.725585938 278.734375 754.537109375 268.786132812 749.301757812 c 0
 258.837890625 744.065429688 249.674804688 738.829101562 241.297851562 733.594726562 c 0
 232.919921875 728.357421875 225.588867188 722.598632812 219.306640625 716.314453125 c 1
 219.306640625 724.16796875 l 1
 216.165039062 719.979492188 210.666992188 714.482421875 202.8125 707.674804688 c 0
 194.958007812 700.868164062 187.3671875 694.0625 180.037109375 687.254882812 c 0
 172.706054688 680.447265625 165.899414062 673.379882812 159.616210938 666.048828125 c 0
 153.33203125 658.71875 149.66796875 652.434570312 148.620117188 647.200195312 c 1
 145.479492188 645.627929688 l 1
 145.479492188 645.627929688 145.479492188 645.627929688 126.62890625 604.788085938 c 0
 120.345703125 593.26953125 115.633789062 590.126953125 112.491210938 595.36328125 c 1
 99.9248046875 569.182617188 87.359375 534.625976562 74.7919921875 491.689453125 c 0
 75.8408203125 488.547851562 76.36328125 481.7421875 76.36328125 471.26953125 c 0x2e3d
 76.36328125 460.797851562 76.1015625 449.540039062 75.578125 437.497070312 c 0x2e59
 75.0546875 425.455078125 75.31640625 412.626953125 76.36328125 399.013671875 c 0x2e39
 73.2216796875 340.370117188 84.478515625 282.512695312 110.135742188 225.439453125 c 0
 135.791992188 168.368164062 170.610351562 119.93359375 214.592773438 80.140625 c 0
 258.577148438 40.3466796875 305.176757812 13.6435546875 354.395507812 0.0302734375 c 0
 366.9609375 -4.158203125 394.711914062 -6.77734375 437.647460938 -7.8232421875 c 1
 428.223632812 -5.7294921875 417.227539062 -3.634765625 404.661132812 -1.541015625 c 0
 392.09375 0.552734375 380.051757812 3.6953125 368.532226562 7.8837890625 c 0
 361.202148438 11.0263671875 355.1796875 14.4287109375 350.46875 18.09375 c 0
 345.755859375 21.7587890625 341.04296875 26.47265625 336.331054688 32.23046875 c 0
 331.618164062 37.9912109375 327.690429688 42.44140625 324.549804688 45.5830078125 c 1
 330.833007812 34.587890625 l 1
 319.314453125 37.7294921875 310.936523438 41.3935546875 305.700195312 45.5830078125 c 0
 300.46484375 49.771484375 293.657226562 53.4375 285.280273438 56.578125 c 1
 293.1328125 66.0029296875 l 1
 287.8984375 66.0029296875 281.614257812 69.14453125 274.284179688 75.4287109375 c 0
 266.954101562 81.7119140625 262.241210938 87.470703125 260.147460938 92.7080078125 c 1
 249.150390625 91.1357421875 l 1
 234.490234375 108.938476562 227.68359375 122.029296875 228.731445312 130.405273438 c 1
 224.01953125 124.123046875 l 1
 224.01953125 125.169921875 221.400390625 128.8359375 216.165039062 135.118164062 c 0
 196.268554688 161.299804688 188.4140625 174.912109375 192.602539062 175.959960938 c 0
 193.650390625 175.959960938 195.219726562 175.436523438 197.31640625 174.388671875 c 1
 188.9375 182.766601562 183.701171875 188.526367188 181.607421875 191.66796875 c 2
 186.319335938 197.951171875 l 1
 171.658203125 216.799804688 164.852539062 230.413085938 165.899414062 238.791992188 c 1
 170.088867188 232.508789062 174.799804688 228.318359375 180.037109375 226.224609375 c 1
 173.752929688 242.98046875 167.993164062 253.9765625 162.7578125 259.212890625 c 0
 157.522460938 264.448242188 153.594726562 266.28125 150.975585938 264.708984375 c 0
 148.358398438 263.139648438 144.955078125 264.708984375 140.766601562 269.422851562 c 0
 136.577148438 274.134765625 132.388671875 284.34375 128.200195312 300.052734375 c 1
 131.340820312 301.624023438 l 1
 131.340820312 301.624023438 131.340820312 301.624023438 123.487304688 317.33203125 c 1
 125.05859375 337.752929688 l 1
 120.870117188 344.03515625 117.990234375 353.721679688 116.41796875 366.811523438 c 0
 114.848632812 379.90234375 114.32421875 391.9453125 114.848632812 402.940429688 c 0x2e59
 115.37109375 413.935546875 116.680664062 428.858398438 118.776367188 447.708007812 c 0
 120.870117188 466.557617188 121.916992188 479.124023438 121.916992188 485.407226562 c 0
 122.96484375 491.689453125 127.4140625 502.163085938 135.268554688 516.823242188 c 0
 143.122070312 531.484375 148.620117188 542.478515625 151.76171875 549.809570312 c 1
 145.479492188 551.380859375 l 1
 153.856445312 567.087890625 170.610351562 586.723632812 195.744140625 610.286132812 c 0
 220.877929688 633.84765625 239.7265625 645.10546875 252.29296875 644.05859375 c 1
 257.004882812 651.913085938 l 1
 255.435546875 650.340820312 l 1
 247.581054688 648.76953125 l 1
 257.004882812 658.1953125 264.859375 664.740234375 271.143554688 668.405273438 c 0
 277.42578125 672.069335938 284.755859375 674.165039062 293.1328125 674.689453125 c 0
 301.51171875 675.211914062 307.271484375 675.997070312 310.413085938 677.043945312 c 2
 316.696289062 683.328125 l 1
 315.647460938 682.280273438 313.553710938 681.7578125 310.413085938 681.7578125 c 0
 303.08203125 680.709960938 299.940429688 681.233398438 300.987304688 683.328125 c 0
 309.365234375 685.421875 316.696289062 688.040039062 322.979492188 691.182617188 c 0
 329.262695312 694.32421875 333.974609375 696.94140625 337.1171875 699.037109375 c 0
 340.2578125 701.130859375 345.494140625 703.225585938 352.82421875 705.319335938 c 0
 360.154296875 707.413085938 369.579101562 709.5078125 381.099609375 711.6015625 c 0
 383.193359375 710.555664062 382.146484375 708.984375 377.958007812 706.889648438 c 0
 369.579101562 704.794921875 364.8671875 703.225585938 363.8203125 702.177734375 c 1
 380.575195312 710.555664062 404.3984375 713.697265625 435.291992188 711.6015625 c 0
 466.18359375 709.5078125 493.1484375 703.225585938 516.1875 692.752929688 c 0
 544.461914062 679.139648438 570.903320312 655.838867188 595.512695312 622.852539062 c 0
 620.122070312 589.865234375 632.950195312 556.09375 633.997070312 521.536132812 c 1
 635.568359375 521.536132812 l 1
 635.568359375 516.299804688 635.830078125 507.3984375 636.354492188 494.833007812 c 0
 636.876953125 482.265625 636.876953125 470.747070312 636.354492188 460.274414062 c 0x363d
 635.830078125 449.801757812 633.997070312 440.376953125 630.85546875 432 c 1
 637.139648438 446.137695312 l 1
417.227539062 776.004882812 m 1
 412.514648438 776.004882812 l 1
 417.227539062 776.004882812 l 1
403.08984375 780.717773438 m 1
 421.939453125 777.577148438 l 1
 420.892578125 777.577148438 419.321289062 777.052734375 417.227539062 776.004882812 c 1
 418.274414062 777.052734375 414.608398438 778.098632812 406.23046875 779.146484375 c 0
 405.184570312 780.193359375 404.13671875 780.717773438 403.08984375 780.717773438 c 1
550.74609375 453.991210938 m 0
 549.698242188 449.801757812 548.126953125 450.849609375 546.033203125 457.1328125 c 0
 544.461914062 461.844726562 544.461914062 461.844726562 544.461914062 461.844726562 c 2
 544.461914062 464.986328125 545.509765625 467.60546875 547.603515625 469.69921875 c 0
 548.650390625 471.79296875 549.698242188 471.26953125 550.74609375 468.127929688 c 0
 550.74609375 463.416992188 550.74609375 463.416992188 550.74609375 453.991210938 c 0
524.041015625 386.446289062 m 1
 532.418945312 397.965820312 537.655273438 409.485351562 539.749023438 421.00390625 c 1
 538.702148438 416.814453125 535.038085938 408.9609375 528.752929688 397.44140625 c 0
 521.423828125 392.20703125 517.758789062 390.634765625 517.758789062 392.73046875 c 256
 517.758789062 394.825195312 519.329101562 398.489257812 522.470703125 403.725585938 c 2
 528.752929688 416.29296875 l 1
 522.470703125 407.9140625 518.543945312 401.893554688 516.97265625 398.227539062 c 0
 515.40234375 394.5625 515.40234375 392.467773438 516.97265625 391.9453125 c 0
 519.329101562 391.159179688 519.329101562 391.159179688 521.684570312 390.373046875 c 0
 523.256835938 389.850585938 524.041015625 388.541015625 524.041015625 386.446289062 c 1
453.354492188 369.16796875 m 1
 443.930664062 368.120117188 445.500976562 366.025390625 458.067382812 362.883789062 c 0x6619
 462.256835938 360.790039062 467.493164062 359.743164062 473.775390625 359.743164062 c 0
 477.96484375 362.883789062 482.154296875 366.549804688 486.342773438 370.73828125 c 1xa619
 476.91796875 367.59765625 465.921875 367.073242188 453.354492188 369.16796875 c 1
EndSplineSet
Validated: 524325
EndChar

StartChar: uniEC35
Encoding: 60469 60469 26
Width: 852
VWidth: 512
Flags: W
LayerCount: 2
Fore
SplineSet
274.860351562 789.5859375 m 1
 279.125976562 787.454101562 289.788085938 774.125 306.848632812 749.6015625 c 1
 342.033203125 760.263671875 377.751953125 765.595703125 414.004882812 765.595703125 c 0
 519.563476562 765.595703125 610.192382812 727.743164062 685.895507812 652.040039062 c 0
 761.598632812 576.336914062 799.451171875 485.708007812 799.451171875 380.149414062 c 2
 799.451171875 378.549804688 l 1
 803.715820312 375.3515625 807.448242188 371.620117188 810.646484375 367.353515625 c 2
 823.44140625 356.158203125 l 1
 817.043945312 343.364257812 l 2
 808.513671875 327.370117188 799.451171875 312.975585938 789.854492188 300.181640625 c 0
 738.674804688 230.876953125 644.311523438 186.094726562 506.768554688 165.8359375 c 0
 400.143554688 149.841796875 262.59765625 149.30859375 94.1328125 164.235351562 c 1
 81.337890625 182.361328125 70.142578125 202.087890625 60.5458984375 223.412109375 c 1
 50.951171875 225.543945312 43.486328125 227.677734375 38.1552734375 229.810546875 c 2
 28.55859375 234.607421875 l 1
 33.3564453125 247.40234375 l 2
 37.623046875 252.732421875 41.353515625 259.130859375 44.5517578125 266.59375 c 1
 33.8896484375 302.84765625 28.55859375 340.697265625 28.55859375 380.149414062 c 0
 28.55859375 430.26171875 37.888671875 478.243164062 56.5478515625 524.091796875 c 0
 75.2080078125 569.940429688 101.596679688 610.724609375 135.716796875 646.442382812 c 0
 169.8359375 682.161132812 209.819335938 710.684570312 255.668945312 732.008789062 c 1
 263.131835938 751.200195312 269.530273438 770.393554688 274.860351562 789.5859375 c 1
773.860351562 242.603515625 m 1024
414.004882812 -5.296875 m 0
 355.361328125 -5.296875 299.916992188 6.9658203125 247.670898438 31.4892578125 c 0
 195.424804688 56.0126953125 151.176757812 91.197265625 114.924804688 137.046875 c 1
 273.793945312 124.251953125 405.475585938 125.318359375 509.966796875 140.245117188 c 0
 627.251953125 157.305664062 715.216796875 191.424804688 773.860351562 242.603515625 c 1
 745.071289062 167.967773438 697.890625 107.9921875 632.317382812 62.67578125 c 0
 566.744140625 17.361328125 493.97265625 -5.296875 414.004882812 -5.296875 c 0
287.655273438 735.20703125 m 1
 285.5234375 729.875976562 283.923828125 724.811523438 282.857421875 720.013671875 c 0
 281.790039062 715.21484375 280.190429688 710.150390625 278.059570312 704.819335938 c 0
 271.662109375 680.295898438 263.131835938 654.172851562 252.46875 626.451171875 c 0
 248.204101562 615.788085938 243.940429688 604.591796875 239.674804688 592.864257812 c 0
 233.276367188 577.936523438 225.813476562 561.943359375 217.283203125 544.883789062 c 0
 214.084960938 536.88671875 214.084960938 536.88671875 210.88671875 528.890625 c 0
 187.427734375 478.776367188 158.107421875 422.265625 122.921875 359.357421875 c 0
 111.192382812 336.966796875 91.466796875 301.78125 63.7451171875 253.799804688 c 1
 126.120117188 237.806640625 l 2
 162.372070312 232.474609375 207.688476562 227.143554688 262.065429688 221.813476562 c 0
 317.51171875 216.481445312 374.020507812 211.150390625 431.59765625 205.819335938 c 1
 430.530273438 211.150390625 428.3984375 238.874023438 425.200195312 288.986328125 c 0
 422.001953125 339.098632812 418.53515625 390.012695312 414.8046875 441.724609375 c 0
 411.072265625 493.436523438 408.673828125 526.7578125 407.608398438 541.685546875 c 1
 399.611328125 556.079101562 399.611328125 556.079101562 391.614257812 570.473632812 c 0
 383.6171875 583.267578125 383.6171875 583.267578125 375.620117188 596.0625 c 2
 375.620117188 596.0625 375.620117188 596.0625 374.020507812 597.662109375 c 0
 374.020507812 598.729492188 373.489257812 599.793945312 372.420898438 600.861328125 c 0
 368.15625 607.2578125 364.157226562 613.388671875 360.42578125 619.25390625 c 0
 356.694335938 625.118164062 352.162109375 632.314453125 346.831054688 640.845703125 c 0
 335.103515625 656.838867188 327.639648438 668.034179688 324.440429688 674.431640625 c 0
 319.110351562 681.896484375 314.310546875 689.358398438 310.046875 696.822265625 c 0
 304.715820312 705.352539062 299.383789062 713.348632812 294.052734375 720.813476562 c 0
 291.920898438 726.143554688 289.788085938 730.942382812 287.655273438 735.20703125 c 1
437.995117188 530.489257812 m 1
 465.716796875 472.913085938 481.177734375 414.53515625 484.375976562 355.358398438 c 0
 487.575195312 296.182617188 480.110351562 245.803710938 461.986328125 204.219726562 c 1
 480.110351562 205.286132812 499.037109375 205.552734375 518.763671875 205.01953125 c 0
 538.487304688 204.486328125 562.477539062 207.15234375 590.734375 213.015625 c 0
 618.990234375 218.880859375 646.444335938 228.209960938 673.100585938 241.004882812 c 1
 651.776367188 287.918945312 621.654296875 335.634765625 582.737304688 384.147460938 c 0
 543.8203125 432.66015625 509.966796875 469.180664062 481.177734375 493.704101562 c 2
 437.995117188 530.489257812 l 1
551.55078125 458.517578125 m 1
 600.59765625 425.463867188 632.584960938 400.94140625 647.51171875 384.947265625 c 0
 684.829101562 347.629882812 701.357421875 303.913085938 697.090820312 253.799804688 c 1
 736.54296875 274.05859375 768.530273438 306.045898438 793.052734375 349.76171875 c 1
 761.06640625 378.549804688 712.552734375 404.671875 647.51171875 428.130859375 c 0
 617.65625 438.793945312 585.669921875 448.921875 551.55078125 458.517578125 c 1
EndSplineSet
Validated: 524321
EndChar
